<svg width="67" height="68" viewBox="0 0 67 68" fill="none" xmlns="http://www.w3.org/2000/svg">
<path fill-rule="evenodd" clip-rule="evenodd" d="M17.4134 8.85878H13.791C13.5961 8.85878 13.4206 8.75019 13.3343 8.5887C13.2369 8.41328 13.248 8.20724 13.3566 8.04296L15.314 4.99686L15.3251 1.37718C15.3251 1.17949 15.4226 1.00686 15.598 0.920548C15.7595 0.820311 15.9655 0.831448 16.1298 0.940039L19.1759 2.90023L22.7984 2.90859C22.9933 2.90859 23.1659 3.00882 23.255 3.18145C23.3525 3.34573 23.3413 3.56291 23.2327 3.71605L21.2753 6.75937L21.2642 10.3818C21.2642 10.5767 21.1667 10.7522 20.9913 10.8385C20.8187 10.9359 20.6099 10.9248 20.4595 10.8273L17.4134 8.85878ZM11.583 19.8236C11.7695 19.8236 11.9421 19.715 12.0285 19.5396C12.1176 19.367 12.1064 19.1582 11.9978 19.0078L9.49468 15.3853L9.34154 10.9916C9.34154 10.7939 9.23295 10.6213 9.06032 10.535C8.8849 10.4459 8.67886 10.4681 8.51736 10.5767L4.90604 13.0687L0.512307 13.2219C0.314617 13.2302 0.141986 13.3416 0.0556711 13.5142C-0.0334287 13.6785 -0.0111537 13.8846 0.0974366 14.0461L2.58945 17.6685L2.7398 22.0623C2.75094 22.2488 2.85953 22.4214 3.03494 22.5105C3.19644 22.5968 3.40527 22.5857 3.56676 22.4771L7.18922 19.974L11.583 19.8236ZM19.8052 23.4433L18.7499 21.5304C18.6636 21.355 18.4798 21.2576 18.2933 21.2576C18.0984 21.2576 17.9257 21.355 17.8255 21.5304L16.7814 23.4433L14.8685 24.4874C14.6931 24.5877 14.5956 24.7603 14.5956 24.9552C14.5956 25.1418 14.6931 25.3255 14.8685 25.4118L16.7814 26.4671L17.8255 28.3828C17.9257 28.5443 18.0984 28.6556 18.2933 28.6556C18.4798 28.6556 18.6636 28.5443 18.7499 28.3828L19.8052 26.4671L21.7208 25.4118C21.8823 25.3255 21.9909 25.1418 21.9909 24.9552C21.9909 24.7603 21.8823 24.5877 21.7208 24.4874L19.8052 23.4433ZM26.9944 16.5269L28.5954 16.332L30.0517 17.0281C30.2243 17.1144 30.4331 17.0922 30.5835 16.9724C30.7366 16.8638 30.8229 16.6801 30.8007 16.4824L30.5946 14.8842L31.2907 13.4279C31.3798 13.2525 31.3575 13.0576 31.2489 12.8933C31.1404 12.743 30.9427 12.6539 30.7589 12.6873L29.1607 12.8822L27.7017 12.1861C27.529 12.0998 27.3202 12.1221 27.1698 12.2306C27.0056 12.3504 26.9304 12.5341 26.9527 12.7207L27.1476 14.3301L26.4515 15.7779C26.3763 15.9506 26.3874 16.1566 26.5072 16.3097C26.6158 16.474 26.7995 16.5492 26.9944 16.5269ZM63.5727 39.988L65.3881 41.8034C66.0424 42.4466 66.3682 43.3042 66.3682 44.1646C66.3682 44.5878 66.293 45.0138 66.1287 45.4147C65.9644 45.8185 65.7166 46.1972 65.3881 46.5257C64.085 47.8288 61.9744 47.8288 60.6686 46.5257L58.1237 43.978L38.6108 24.4791C37.3049 23.1732 37.3161 21.0515 38.6108 19.7457C39.2651 19.0941 40.1227 18.7683 40.9831 18.7683C41.8295 18.7683 42.6899 19.0941 43.3414 19.7457L63.5727 39.988ZM40.1895 22.9003L44.4301 27.1437L46.0061 25.565L41.7655 21.3244C41.4815 21.0404 41.1557 20.9986 40.9831 20.9986C40.8077 20.9986 40.4708 21.0404 40.1895 21.3244C39.7524 21.7588 39.7524 22.466 40.1895 22.9003ZM11.0511 46.0997V64.187C11.0511 66.0246 17.4134 67.5059 25.2542 67.5059C33.0978 67.5059 39.46 66.0246 39.46 64.187V46.0997C35.4366 47.0018 30.4331 47.503 25.2542 47.503C20.0781 47.503 15.0746 47.0018 11.0511 46.0997ZM3.81735 39.5648C3.81735 36.399 13.4095 33.8429 25.2542 33.8429C37.0989 33.8429 46.6938 36.399 46.6938 39.5648C46.6938 41.2605 43.8872 42.7835 39.46 43.8277C35.6733 44.7187 30.7143 45.2727 25.2542 45.2727C19.8052 45.2727 14.8351 44.7298 11.0511 43.8277C6.62399 42.7835 3.81735 41.2605 3.81735 39.5648ZM11.9867 39.5648C11.9867 41.5111 17.9257 43.0981 25.2542 43.0981C32.5854 43.0981 38.5245 41.5111 38.5245 39.5648C38.5245 37.6046 32.5854 36.0175 25.2542 36.0175C17.9257 36.0175 11.9867 37.6046 11.9867 39.5648Z" fill="white"/>
</svg>
