<svg width="58" height="59" viewBox="0 0 58 59" fill="none" xmlns="http://www.w3.org/2000/svg">
<mask id="mask0_301_2313" style="mask-type:luminance" maskUnits="userSpaceOnUse" x="0" y="32" width="58" height="27">
<path fill-rule="evenodd" clip-rule="evenodd" d="M0 32.1008H57.997V58.6751H0V32.1008Z" fill="white"/>
</mask>
<g mask="url(#mask0_301_2313)">
<path fill-rule="evenodd" clip-rule="evenodd" d="M57.7823 56.0014L45.0948 33.043C44.7567 32.4389 44.2251 32.1492 43.4758 32.1008C42.799 32.1008 42.1948 32.4873 41.881 33.0915L39.8267 37.1035L49.4448 54.213C50.2183 55.5665 50.3393 57.2097 49.8078 58.6842H56.1875C56.84 58.6842 57.42 58.3461 57.758 57.7897C58.0725 57.2339 58.0725 56.5578 57.7823 56.0014Z" fill="white"/>
<path fill-rule="evenodd" clip-rule="evenodd" d="M46.2789 55.9771L34.7037 35.3635L30.0874 39.2782C29.121 40.1 27.8642 40.5591 26.5834 40.5591C25.2299 40.5591 23.9491 40.0759 22.9584 39.1814C21.9677 40.0759 20.6869 40.5591 19.3334 40.5591C18.0525 40.5591 16.7957 40.1 15.8052 39.2539L11.4067 35.5322L0.217697 56.0013C-0.0967714 56.5577 -0.0724537 57.2338 0.242015 57.7896C0.580046 58.346 1.18421 58.6841 1.81255 58.6841H44.7084C45.3609 58.6841 45.9409 58.346 46.2789 57.7896C46.5934 57.2338 46.5934 56.5335 46.2789 55.9771Z" fill="white"/>
</g>
<path fill-rule="evenodd" clip-rule="evenodd" d="M36.8541 12.7674H22.9583C21.9576 12.7674 21.1458 11.9556 21.1458 10.9549V2.49658C21.1458 1.49593 21.9576 0.684082 22.9583 0.684082H36.8541C37.5622 0.684082 38.2052 1.09476 38.4997 1.74017C38.7969 2.3827 38.6908 3.13972 38.2293 3.67833L35.6169 6.72575L38.2317 9.77543C38.6932 10.3148 38.7969 11.0712 38.5019 11.7136C38.2052 12.3567 37.5622 12.7674 36.8541 12.7674Z" fill="white"/>
<path fill-rule="evenodd" clip-rule="evenodd" d="M22.9583 20.0174C21.9576 20.0174 21.1458 19.2056 21.1458 18.2049V2.49658C21.1458 1.49593 21.9576 0.684082 22.9583 0.684082C23.9589 0.684082 24.7708 1.49593 24.7708 2.49658V18.2049C24.7708 19.2056 23.9589 20.0174 22.9583 20.0174Z" fill="white"/>
<path fill-rule="evenodd" clip-rule="evenodd" d="M32.8911 32.149L27.7433 36.4991C27.4051 36.7888 26.994 36.934 26.5833 36.934C26.1243 36.934 25.6653 36.7647 25.3025 36.4023L22.9583 34.0583L20.6141 36.4023C19.9375 37.0791 18.8743 37.1033 18.1733 36.4991L13.1707 32.2942L14.959 29.0557L21.3635 17.3345C21.6775 16.7545 22.2816 16.3923 22.9583 16.3923C23.5625 16.3198 24.215 16.7304 24.5288 17.3104L31.0786 28.9347L32.8911 32.149Z" fill="white"/>
</svg>
