<svg width="55" height="63" viewBox="0 0 55 63" fill="none" xmlns="http://www.w3.org/2000/svg">
<path fill-rule="evenodd" clip-rule="evenodd" d="M27.6408 7.46392C28.6442 7.46392 29.457 6.64918 29.457 5.64396V2.00356C29.457 0.999302 28.6442 0.184082 27.6408 0.184082C26.6374 0.184082 25.8241 0.999302 25.8241 2.00356V5.64396C25.8241 6.64918 26.6374 7.46392 27.6408 7.46392ZM51.5609 49.3491C51.258 49.186 44.0716 45.3678 37.1439 47.5513C33.8353 48.594 31.2613 50.7922 29.457 52.8383V45.6835H32.4845C34.8216 45.6835 36.723 43.7783 36.723 41.437V38.3112H18.5586V41.437C18.5586 43.7783 20.4599 45.6835 22.797 45.6835H25.8241V52.7742C24.0232 50.7467 21.4686 48.5831 18.1946 47.5513C11.2668 45.3678 4.07983 49.1855 3.77796 49.3491C2.91214 49.8168 2.57557 50.8898 3.01782 51.769C3.17227 52.0771 6.88426 59.329 13.8124 61.512C17.713 62.7419 22.0643 62.1656 25.8942 60.739C26.3934 62.5082 28.912 62.4958 29.3925 60.7196C33.2088 62.1509 37.5899 62.7528 41.5265 61.512C48.4547 59.329 52.1662 52.0771 52.3206 51.769C52.7624 50.8898 52.4263 49.8168 51.5609 49.3491ZM13.5124 13.3276C12.8029 14.0386 11.653 14.0386 10.9436 13.3276L8.37529 10.7536C7.66527 10.0427 7.66527 8.89052 8.37529 8.18001C9.08435 7.46913 10.2346 7.46913 10.9436 8.18001L13.5124 10.7536C14.2214 11.4641 14.2214 12.6172 13.5124 13.3276ZM7.66005 27.4835C7.66005 26.4782 6.84726 25.664 5.84397 25.664H2.21109C1.20781 25.664 0.394531 26.4782 0.394531 27.4835C0.394531 28.4887 1.20781 29.3039 2.21109 29.3039H5.84397C6.84726 29.3039 7.66005 28.4887 7.66005 27.4835ZM49.4376 25.664H53.0704C54.0737 25.664 54.887 26.4782 54.887 27.4835C54.887 28.4887 54.0737 29.3039 53.0704 29.3039H49.4376C48.4343 29.3039 47.6215 28.4887 47.6215 27.4835C47.6215 26.4782 48.4343 25.664 49.4376 25.664ZM44.3379 13.3276L46.9062 10.7536C47.6163 10.0427 47.6163 8.89052 46.9062 8.18001C46.1972 7.46913 45.047 7.46913 44.3379 8.18001L41.7691 10.7536C41.0602 11.4641 41.0602 12.6172 41.7691 13.3276C42.4787 14.0386 43.6285 14.0386 44.3379 13.3276ZM25.8241 34.6713H16.2367C8.69561 25.1317 15.5759 11.1038 27.6408 11.1038C39.6753 11.1038 46.6072 25.1043 39.0454 34.6713H29.457V28.2375L32.5579 25.1307C33.2675 24.4199 33.2675 23.2677 32.5579 22.5572C31.849 21.8463 30.6982 21.8463 29.9891 22.5572L27.6408 24.9099L25.2924 22.5568C24.5834 21.8463 23.4325 21.8463 22.7236 22.5568C22.0141 23.2677 22.0141 24.4199 22.7236 25.1307L25.8241 28.2375V34.6713Z" fill="white"/>
</svg>
