<svg width="420" height="391" viewBox="0 0 420 391" fill="none" xmlns="http://www.w3.org/2000/svg">
<mask id="mask0_301_3054" style="mask-type:luminance" maskUnits="userSpaceOnUse" x="0" y="0" width="420" height="338">
<path fill-rule="evenodd" clip-rule="evenodd" d="M0 0.298828H419.606V337.891H0V0.298828Z" fill="white"/>
</mask>
<g mask="url(#mask0_301_3054)">
<path fill-rule="evenodd" clip-rule="evenodd" d="M0.00488031 207.801C0.00188031 208.163 0.000880311 208.525 -0.000119689 208.886C-0.0771197 257.405 11.8579 325.115 84.8629 336.561C134.59 344.357 171.869 316.517 202.999 288.677C231.731 262.981 255.226 237.286 278.435 239.609C303.194 242.086 331.581 245.373 354.393 236.36C376.14 227.766 393.5 211.908 404.297 194.825C442.85 133.822 404.588 66.9659 334.166 31.3909C240.227 -16.0651 105.406 -12.7661 45.2109 66.1939C13.7289 107.491 0.28388 159.386 0.00488031 207.801Z" fill="#67BC93"/>
<path fill-rule="evenodd" clip-rule="evenodd" d="M101.694 337.891C96.247 337.891 90.636 337.466 84.863 336.561C12.071 325.148 -0.00599777 257.801 2.2338e-06 209.313C2.2338e-06 209.17 2.2338e-06 209.028 2.2338e-06 208.886C0.00100223 208.525 0.00200223 208.163 0.00500223 207.801C0.284002 159.386 13.729 107.491 45.211 66.1938C79.916 20.6708 139.415 0.298828 201.594 0.298828C247.265 0.298828 294.386 11.2948 334.166 31.3908C385.401 57.2728 419.613 99.7128 419.605 144.41C419.603 161.148 414.801 178.204 404.297 194.825C396.978 206.405 386.642 217.423 373.968 225.997V86.7338C373.968 86.2408 373.947 85.7588 373.907 85.2778C373.167 74.5668 364.242 66.1048 353.348 66.1038H66.258C55.366 66.1048 46.442 74.5638 45.7 85.2708C45.658 85.7558 45.638 86.2398 45.638 86.7338V160.556C44.392 160.772 43.185 161.101 42.027 161.532C41.768 161.628 41.636 161.916 41.733 162.175C41.808 162.376 41.999 162.5 42.201 162.501C42.259 162.501 42.318 162.49 42.376 162.469C43.423 162.079 44.514 161.777 45.638 161.572V249.964C45.638 259.197 51.71 267.015 60.078 269.642V279.055C60.078 285.895 65.622 291.438 72.463 291.439H135.856C135.816 291.892 135.761 292.341 135.691 292.784C135.648 293.057 135.834 293.313 136.107 293.356C136.133 293.36 136.159 293.363 136.185 293.363C136.427 293.363 136.64 293.187 136.679 292.94C136.757 292.446 136.817 291.945 136.859 291.439H167.265V290.939V291.439C174.104 291.438 179.649 285.895 179.649 279.055V270.584H205.469C205.002 273.394 204.62 275.777 204.346 277.425C203.6 281.905 202.562 286.159 201.888 289.669C174.613 313.941 142.61 337.893 101.694 337.891ZM112.646 309.114C112.37 309.114 112.146 309.337 112.146 309.614C112.146 309.89 112.37 310.114 112.646 310.114H116.548L116.649 310.113C116.925 310.112 117.147 309.887 117.146 309.611C117.145 309.336 116.921 309.113 116.646 309.113C116.645 309.113 116.645 309.113 116.644 309.113L116.549 309.114H112.646ZM104.646 309.114C104.37 309.114 104.146 309.337 104.146 309.614C104.146 309.89 104.37 310.114 104.646 310.114H108.646C108.922 310.114 109.146 309.89 109.146 309.614C109.146 309.337 108.922 309.114 108.646 309.114H104.646ZM96.646 309.114C96.37 309.114 96.146 309.337 96.146 309.614C96.146 309.89 96.37 310.114 96.646 310.114H100.646C100.922 310.114 101.146 309.89 101.146 309.614C101.146 309.337 100.922 309.114 100.646 309.114H96.646ZM88.646 309.114C88.37 309.114 88.146 309.337 88.146 309.614C88.146 309.89 88.37 310.114 88.646 310.114H92.646C92.922 310.114 93.146 309.89 93.146 309.614C93.146 309.337 92.922 309.114 92.646 309.114H88.646ZM80.646 309.114C80.37 309.114 80.146 309.337 80.146 309.614C80.146 309.89 80.37 310.114 80.646 310.114H84.646C84.922 310.114 85.146 309.89 85.146 309.614C85.146 309.337 84.922 309.114 84.646 309.114H80.646ZM72.646 309.114C72.37 309.114 72.146 309.337 72.146 309.614C72.146 309.89 72.37 310.114 72.646 310.114H76.646C76.922 310.114 77.146 309.89 77.146 309.614C77.146 309.337 76.922 309.114 76.646 309.114H72.646ZM64.646 309.114C64.37 309.114 64.146 309.337 64.146 309.614C64.146 309.89 64.37 310.114 64.646 310.114H68.646C68.922 310.114 69.146 309.89 69.146 309.614C69.146 309.337 68.922 309.114 68.646 309.114H64.646ZM56.646 309.114C56.37 309.114 56.146 309.337 56.146 309.614C56.146 309.89 56.37 310.114 56.646 310.114H60.646C60.922 310.114 61.146 309.89 61.146 309.614C61.146 309.337 60.922 309.114 60.646 309.114H56.646ZM48.646 309.108C48.375 309.108 48.153 309.324 48.146 309.595C48.14 309.872 48.358 310.101 48.634 310.107C48.802 310.112 48.97 310.114 49.138 310.114H52.646C52.922 310.114 53.146 309.89 53.146 309.614C53.146 309.337 52.922 309.114 52.646 309.114H49.138C48.978 309.114 48.818 309.112 48.658 309.108C48.654 309.108 48.65 309.108 48.646 309.108ZM124.422 307.493C124.356 307.493 124.289 307.506 124.224 307.534C123.044 308.044 121.803 308.44 120.514 308.708C120.244 308.764 120.07 309.029 120.127 309.299C120.176 309.535 120.384 309.697 120.616 309.697C120.649 309.697 120.684 309.694 120.718 309.687C122.073 309.405 123.379 308.989 124.621 308.452C124.874 308.343 124.991 308.049 124.882 307.795C124.8 307.606 124.616 307.493 124.422 307.493ZM40.904 307.333C40.714 307.333 40.533 307.442 40.449 307.626C40.334 307.877 40.445 308.174 40.696 308.289C41.928 308.85 43.225 309.292 44.574 309.6C44.611 309.609 44.649 309.613 44.686 309.613C44.914 309.613 45.12 309.456 45.173 309.225C45.234 308.955 45.066 308.687 44.797 308.626C43.515 308.332 42.282 307.912 41.111 307.379C41.044 307.348 40.973 307.333 40.904 307.333ZM130.94 302.949C130.808 302.949 130.676 303.001 130.578 303.104C129.682 304.044 128.692 304.894 127.624 305.639C127.398 305.797 127.342 306.109 127.5 306.335C127.597 306.475 127.753 306.549 127.91 306.549C128.009 306.549 128.109 306.52 128.196 306.459C129.319 305.676 130.36 304.782 131.302 303.794C131.492 303.594 131.485 303.278 131.285 303.087C131.188 302.995 131.064 302.949 130.94 302.949ZM34.478 302.662C34.357 302.662 34.236 302.705 34.14 302.793C33.937 302.98 33.923 303.296 34.11 303.5C35.032 304.507 36.055 305.42 37.162 306.226C37.251 306.29 37.354 306.321 37.456 306.321C37.61 306.321 37.763 306.25 37.86 306.115C38.023 305.892 37.974 305.579 37.75 305.417C36.697 304.651 35.725 303.782 34.847 302.824C34.748 302.717 34.613 302.662 34.478 302.662ZM135.166 296.222C134.964 296.222 134.774 296.346 134.698 296.546C134.238 297.772 133.657 298.939 132.969 300.033C132.822 300.266 132.892 300.575 133.126 300.722C133.209 300.774 133.301 300.799 133.392 300.799C133.558 300.799 133.721 300.716 133.816 300.565C134.539 299.415 135.15 298.188 135.634 296.898C135.731 296.639 135.601 296.351 135.342 296.254C135.284 296.232 135.225 296.222 135.166 296.222ZM30.385 295.852C30.33 295.852 30.274 295.862 30.219 295.881C29.959 295.973 29.822 296.259 29.914 296.519C30.373 297.819 30.96 299.058 31.659 300.222C31.753 300.378 31.919 300.464 32.088 300.464C32.176 300.464 32.265 300.441 32.346 300.392C32.582 300.25 32.659 299.943 32.516 299.706C31.851 298.6 31.293 297.422 30.857 296.186C30.784 295.981 30.591 295.852 30.385 295.852ZM29.257 287.983C28.98 287.983 28.757 288.207 28.757 288.483V289.733C28.757 290.685 28.822 291.623 28.949 292.541C28.983 292.792 29.197 292.973 29.443 292.973C29.466 292.973 29.489 292.971 29.512 292.968C29.786 292.931 29.977 292.678 29.939 292.405C29.819 291.531 29.757 290.639 29.757 289.733V288.483C29.757 288.207 29.533 287.983 29.257 287.983ZM29.257 279.983C28.98 279.983 28.757 280.206 28.757 280.483V284.483C28.757 284.759 28.98 284.983 29.257 284.983C29.533 284.983 29.757 284.759 29.757 284.483V280.483C29.757 280.206 29.533 279.983 29.257 279.983ZM29.257 271.983C28.98 271.983 28.757 272.206 28.757 272.483V276.483C28.757 276.759 28.98 276.983 29.257 276.983C29.533 276.983 29.757 276.759 29.757 276.483V272.483C29.757 272.206 29.533 271.983 29.257 271.983ZM29.257 263.983C28.98 263.983 28.757 264.206 28.757 264.483V268.483C28.757 268.759 28.98 268.983 29.257 268.983C29.533 268.983 29.757 268.759 29.757 268.483V264.483C29.757 264.206 29.533 263.983 29.257 263.983ZM29.257 255.983C28.98 255.983 28.757 256.207 28.757 256.483V260.483C28.757 260.759 28.98 260.983 29.257 260.983C29.533 260.983 29.757 260.759 29.757 260.483V256.483C29.757 256.207 29.533 255.983 29.257 255.983ZM29.257 247.983C28.98 247.983 28.757 248.207 28.757 248.483V252.483C28.757 252.759 28.98 252.983 29.257 252.983C29.533 252.983 29.757 252.759 29.757 252.483V248.483C29.757 248.207 29.533 247.983 29.257 247.983ZM29.257 239.983C28.98 239.983 28.757 240.207 28.757 240.483V244.483C28.757 244.759 28.98 244.983 29.257 244.983C29.533 244.983 29.757 244.759 29.757 244.483V240.483C29.757 240.207 29.533 239.983 29.257 239.983ZM29.257 231.983C28.98 231.983 28.757 232.207 28.757 232.483V236.483C28.757 236.759 28.98 236.983 29.257 236.983C29.533 236.983 29.757 236.759 29.757 236.483V232.483C29.757 232.207 29.533 231.983 29.257 231.983ZM29.257 223.983C28.98 223.983 28.757 224.207 28.757 224.483V228.483C28.757 228.759 28.98 228.983 29.257 228.983C29.533 228.983 29.757 228.759 29.757 228.483V224.483C29.757 224.207 29.533 223.983 29.257 223.983ZM29.257 215.983C28.98 215.983 28.757 216.207 28.757 216.483V220.483C28.757 220.759 28.98 220.983 29.257 220.983C29.533 220.983 29.757 220.759 29.757 220.483V216.483C29.757 216.207 29.533 215.983 29.257 215.983ZM29.257 207.983C28.98 207.983 28.757 208.207 28.757 208.483V212.483C28.757 212.759 28.98 212.983 29.257 212.983C29.533 212.983 29.757 212.759 29.757 212.483V208.483C29.757 208.207 29.533 207.983 29.257 207.983ZM29.257 199.983C28.98 199.983 28.757 200.207 28.757 200.483V204.483C28.757 204.759 28.98 204.983 29.257 204.983C29.533 204.983 29.757 204.759 29.757 204.483V200.483C29.757 200.207 29.533 199.983 29.257 199.983ZM29.257 191.983C28.98 191.983 28.757 192.207 28.757 192.483V196.483C28.757 196.759 28.98 196.983 29.257 196.983C29.533 196.983 29.757 196.759 29.757 196.483V192.483C29.757 192.207 29.533 191.983 29.257 191.983ZM29.257 183.983C28.98 183.983 28.757 184.207 28.757 184.483V188.483C28.757 188.759 28.98 188.983 29.257 188.983C29.533 188.983 29.757 188.759 29.757 188.483V184.483C29.757 184.207 29.533 183.983 29.257 183.983ZM29.684 176.014C29.453 176.014 29.245 176.175 29.196 176.411C28.918 177.725 28.768 179.086 28.757 180.479C28.755 180.755 28.977 180.981 29.253 180.983C29.255 180.983 29.256 180.983 29.257 180.983C29.532 180.983 29.755 180.761 29.757 180.487C29.767 179.16 29.911 177.867 30.174 176.617C30.231 176.347 30.058 176.082 29.788 176.025C29.753 176.017 29.719 176.014 29.684 176.014ZM32.854 168.73C32.696 168.73 32.541 168.804 32.444 168.943C31.663 170.056 30.99 171.251 30.441 172.512C30.331 172.765 30.447 173.06 30.7 173.17C30.765 173.198 30.833 173.211 30.9 173.211C31.092 173.211 31.276 173.099 31.358 172.911C31.88 171.712 32.52 170.576 33.263 169.517C33.421 169.291 33.367 168.98 33.14 168.821C33.053 168.76 32.953 168.73 32.854 168.73ZM38.619 163.264C38.528 163.264 38.437 163.289 38.354 163.34H38.355C37.192 164.066 36.108 164.907 35.118 165.845C34.918 166.035 34.909 166.351 35.099 166.552C35.197 166.656 35.33 166.708 35.462 166.708C35.585 166.708 35.709 166.662 35.806 166.571C36.747 165.678 37.779 164.879 38.884 164.188C39.119 164.042 39.19 163.733 39.043 163.499C38.949 163.347 38.786 163.264 38.619 163.264Z" fill="white"/>
</g>
<path fill-rule="evenodd" clip-rule="evenodd" d="M54.0511 160.257H50.0511C49.7751 160.257 49.5511 160.481 49.5511 160.757C49.5511 161.033 49.7751 161.257 50.0511 161.257H54.0511C54.3271 161.257 54.5511 161.033 54.5511 160.757C54.5511 160.481 54.3271 160.257 54.0511 160.257ZM45.9881 160.499C44.6181 160.711 43.2921 161.061 42.0271 161.532C41.7681 161.628 41.6361 161.916 41.7331 162.175C41.8291 162.434 42.1171 162.565 42.3761 162.469C43.5791 162.021 44.8381 161.689 46.1411 161.487C46.4141 161.445 46.6011 161.189 46.5581 160.916C46.5161 160.643 46.2611 160.456 45.9881 160.499ZM38.3551 163.34C37.1921 164.066 36.1081 164.907 35.1181 165.845C34.9181 166.035 34.9091 166.351 35.0991 166.552C35.2891 166.752 35.6061 166.761 35.8061 166.571C36.7471 165.678 37.7791 164.879 38.8841 164.188C39.1191 164.042 39.1901 163.733 39.0431 163.499C38.8971 163.265 38.5891 163.194 38.3541 163.34H38.3551ZM32.4441 168.943C31.6631 170.056 30.9901 171.251 30.4411 172.512C30.3311 172.765 30.4471 173.06 30.7001 173.17C30.9531 173.28 31.2481 173.164 31.3581 172.911C31.8801 171.712 32.5201 170.576 33.2631 169.517C33.4211 169.291 33.3671 168.98 33.1401 168.821C32.9141 168.662 32.6031 168.717 32.4441 168.943ZM29.1961 176.411C28.9181 177.725 28.7681 179.086 28.7571 180.479C28.7551 180.755 28.9771 180.981 29.2531 180.983C29.5291 180.985 29.7551 180.763 29.7571 180.487C29.7671 179.16 29.9111 177.867 30.1741 176.617C30.2311 176.347 30.0581 176.082 29.7881 176.025C29.5181 175.968 29.2531 176.141 29.1961 176.411ZM28.7571 184.483V188.483C28.7571 188.759 28.9801 188.983 29.2571 188.983C29.5331 188.983 29.7571 188.759 29.7571 188.483V184.483C29.7571 184.207 29.5331 183.983 29.2571 183.983C28.9801 183.983 28.7571 184.207 28.7571 184.483ZM28.7571 192.483V196.483C28.7571 196.759 28.9801 196.983 29.2571 196.983C29.5331 196.983 29.7571 196.759 29.7571 196.483V192.483C29.7571 192.207 29.5331 191.983 29.2571 191.983C28.9801 191.983 28.7571 192.207 28.7571 192.483ZM28.7571 200.483V204.483C28.7571 204.759 28.9801 204.983 29.2571 204.983C29.5331 204.983 29.7571 204.759 29.7571 204.483V200.483C29.7571 200.207 29.5331 199.983 29.2571 199.983C28.9801 199.983 28.7571 200.207 28.7571 200.483ZM28.7571 208.483V212.483C28.7571 212.759 28.9801 212.983 29.2571 212.983C29.5331 212.983 29.7571 212.759 29.7571 212.483V208.483C29.7571 208.207 29.5331 207.983 29.2571 207.983C28.9801 207.983 28.7571 208.207 28.7571 208.483ZM28.7571 216.483V220.483C28.7571 220.759 28.9801 220.983 29.2571 220.983C29.5331 220.983 29.7571 220.759 29.7571 220.483V216.483C29.7571 216.207 29.5331 215.983 29.2571 215.983C28.9801 215.983 28.7571 216.207 28.7571 216.483ZM28.7571 224.483V228.483C28.7571 228.759 28.9801 228.983 29.2571 228.983C29.5331 228.983 29.7571 228.759 29.7571 228.483V224.483C29.7571 224.207 29.5331 223.983 29.2571 223.983C28.9801 223.983 28.7571 224.207 28.7571 224.483ZM28.7571 232.483V236.483C28.7571 236.759 28.9801 236.983 29.2571 236.983C29.5331 236.983 29.7571 236.759 29.7571 236.483V232.483C29.7571 232.207 29.5331 231.983 29.2571 231.983C28.9801 231.983 28.7571 232.207 28.7571 232.483ZM28.7571 240.483V244.483C28.7571 244.759 28.9801 244.983 29.2571 244.983C29.5331 244.983 29.7571 244.759 29.7571 244.483V240.483C29.7571 240.207 29.5331 239.983 29.2571 239.983C28.9801 239.983 28.7571 240.207 28.7571 240.483ZM28.7571 248.483V252.483C28.7571 252.759 28.9801 252.983 29.2571 252.983C29.5331 252.983 29.7571 252.759 29.7571 252.483V248.483C29.7571 248.207 29.5331 247.983 29.2571 247.983C28.9801 247.983 28.7571 248.207 28.7571 248.483ZM28.7571 256.483V260.483C28.7571 260.759 28.9801 260.983 29.2571 260.983C29.5331 260.983 29.7571 260.759 29.7571 260.483V256.483C29.7571 256.207 29.5331 255.983 29.2571 255.983C28.9801 255.983 28.7571 256.207 28.7571 256.483ZM28.7571 264.483V268.483C28.7571 268.759 28.9801 268.983 29.2571 268.983C29.5331 268.983 29.7571 268.759 29.7571 268.483V264.483C29.7571 264.206 29.5331 263.983 29.2571 263.983C28.9801 263.983 28.7571 264.206 28.7571 264.483ZM28.7571 272.483V276.483C28.7571 276.759 28.9801 276.983 29.2571 276.983C29.5331 276.983 29.7571 276.759 29.7571 276.483V272.483C29.7571 272.206 29.5331 271.983 29.2571 271.983C28.9801 271.983 28.7571 272.206 28.7571 272.483ZM28.7571 280.483V284.483C28.7571 284.759 28.9801 284.983 29.2571 284.983C29.5331 284.983 29.7571 284.759 29.7571 284.483V280.483C29.7571 280.206 29.5331 279.983 29.2571 279.983C28.9801 279.983 28.7571 280.206 28.7571 280.483ZM28.7571 288.483V289.733C28.7571 290.685 28.8221 291.623 28.9491 292.541C28.9861 292.815 29.2391 293.006 29.5121 292.968C29.7861 292.931 29.9771 292.678 29.9391 292.405C29.8191 291.531 29.7571 290.639 29.7571 289.733V288.483C29.7571 288.207 29.5331 287.983 29.2571 287.983C28.9801 287.983 28.7571 288.207 28.7571 288.483ZM29.9141 296.519C30.3731 297.819 30.9601 299.058 31.6591 300.222C31.8021 300.458 32.1091 300.535 32.3461 300.392C32.5821 300.25 32.6591 299.943 32.5161 299.706C31.8511 298.6 31.2931 297.422 30.8571 296.186C30.7651 295.926 30.4791 295.789 30.2191 295.881C29.9591 295.973 29.8221 296.259 29.9141 296.519ZM34.1101 303.5C35.0321 304.507 36.0551 305.42 37.1621 306.226C37.3851 306.388 37.6981 306.339 37.8601 306.115C38.0231 305.892 37.9741 305.579 37.7501 305.417C36.6971 304.651 35.7251 303.782 34.8471 302.824C34.6601 302.621 34.3441 302.607 34.1401 302.793C33.9371 302.98 33.9231 303.296 34.1101 303.5ZM40.6961 308.289C41.9281 308.85 43.2251 309.292 44.5741 309.6C44.8431 309.662 45.1111 309.494 45.1731 309.225C45.2341 308.955 45.0661 308.687 44.7971 308.626C43.5151 308.332 42.2821 307.912 41.1111 307.379C40.8601 307.264 40.5631 307.375 40.4491 307.626C40.3341 307.877 40.4451 308.174 40.6961 308.289ZM48.6341 310.107C48.8021 310.112 48.9701 310.114 49.1381 310.114H52.6461C52.9221 310.114 53.1461 309.89 53.1461 309.614C53.1461 309.337 52.9221 309.114 52.6461 309.114H49.1381C48.9781 309.114 48.8181 309.112 48.6581 309.108C48.3821 309.101 48.1531 309.319 48.1461 309.595C48.1401 309.872 48.3581 310.101 48.6341 310.107ZM56.6461 310.114H60.6461C60.9221 310.114 61.1461 309.89 61.1461 309.614C61.1461 309.337 60.9221 309.114 60.6461 309.114H56.6461C56.3701 309.114 56.1461 309.337 56.1461 309.614C56.1461 309.89 56.3701 310.114 56.6461 310.114ZM64.6461 310.114H68.6461C68.9221 310.114 69.1461 309.89 69.1461 309.614C69.1461 309.337 68.9221 309.114 68.6461 309.114H64.6461C64.3701 309.114 64.1461 309.337 64.1461 309.614C64.1461 309.89 64.3701 310.114 64.6461 310.114ZM72.6461 310.114H76.6461C76.9221 310.114 77.1461 309.89 77.1461 309.614C77.1461 309.337 76.9221 309.114 76.6461 309.114H72.6461C72.3701 309.114 72.1461 309.337 72.1461 309.614C72.1461 309.89 72.3701 310.114 72.6461 310.114ZM80.6461 310.114H84.6461C84.9221 310.114 85.1461 309.89 85.1461 309.614C85.1461 309.337 84.9221 309.114 84.6461 309.114H80.6461C80.3701 309.114 80.1461 309.337 80.1461 309.614C80.1461 309.89 80.3701 310.114 80.6461 310.114ZM88.6461 310.114H92.6461C92.9221 310.114 93.1461 309.89 93.1461 309.614C93.1461 309.337 92.9221 309.114 92.6461 309.114H88.6461C88.3701 309.114 88.1461 309.337 88.1461 309.614C88.1461 309.89 88.3701 310.114 88.6461 310.114ZM96.6461 310.114H100.646C100.922 310.114 101.146 309.89 101.146 309.614C101.146 309.337 100.922 309.114 100.646 309.114H96.6461C96.3701 309.114 96.1461 309.337 96.1461 309.614C96.1461 309.89 96.3701 310.114 96.6461 310.114ZM104.646 310.114H108.646C108.922 310.114 109.146 309.89 109.146 309.614C109.146 309.337 108.922 309.114 108.646 309.114H104.646C104.37 309.114 104.146 309.337 104.146 309.614C104.146 309.89 104.37 310.114 104.646 310.114ZM112.646 310.114H116.548L116.649 310.113C116.925 310.112 117.147 309.887 117.146 309.611C117.145 309.335 116.92 309.112 116.644 309.113L116.549 309.114H112.646C112.37 309.114 112.146 309.337 112.146 309.614C112.146 309.89 112.37 310.114 112.646 310.114ZM120.718 309.687C122.073 309.405 123.379 308.989 124.621 308.452C124.874 308.343 124.991 308.049 124.882 307.795C124.772 307.542 124.478 307.425 124.224 307.534C123.044 308.044 121.803 308.44 120.514 308.708C120.244 308.764 120.07 309.029 120.127 309.299C120.183 309.569 120.447 309.743 120.718 309.687ZM128.196 306.459C129.319 305.676 130.36 304.782 131.302 303.794C131.492 303.594 131.485 303.278 131.285 303.087C131.085 302.897 130.769 302.904 130.578 303.104C129.682 304.044 128.692 304.894 127.624 305.639C127.398 305.797 127.342 306.109 127.5 306.335C127.658 306.562 127.97 306.617 128.196 306.459ZM133.816 300.565C134.539 299.415 135.15 298.188 135.634 296.898C135.731 296.639 135.601 296.351 135.342 296.254C135.084 296.157 134.795 296.288 134.698 296.546C134.238 297.772 133.657 298.939 132.969 300.033C132.822 300.266 132.892 300.575 133.126 300.722C133.36 300.869 133.669 300.799 133.816 300.565ZM136.679 292.94C136.844 291.895 136.93 290.824 136.93 289.733C136.93 289.457 136.706 289.233 136.43 289.233C136.154 289.233 135.93 289.457 135.93 289.733C135.93 290.771 135.848 291.79 135.691 292.784C135.648 293.057 135.834 293.313 136.107 293.356C136.38 293.399 136.636 293.213 136.679 292.94Z" fill="#132529"/>
<path fill-rule="evenodd" clip-rule="evenodd" d="M131.402 57.8197V53.8197C131.402 53.5427 131.178 53.3197 130.902 53.3197C130.626 53.3197 130.402 53.5427 130.402 53.8197V57.8197C130.402 58.0957 130.626 58.3197 130.902 58.3197C131.178 58.3197 131.402 58.0957 131.402 57.8197ZM131.402 49.8197V45.8197C131.402 45.5438 131.178 45.3197 130.902 45.3197C130.626 45.3197 130.402 45.5438 130.402 45.8197V49.8197C130.402 50.0957 130.626 50.3197 130.902 50.3197C131.178 50.3197 131.402 50.0957 131.402 49.8197ZM131.402 41.8197V37.8197C131.402 37.5437 131.178 37.3197 130.902 37.3197C130.626 37.3197 130.402 37.5437 130.402 37.8197V41.8197C130.402 42.0957 130.626 42.3197 130.902 42.3197C131.178 42.3197 131.402 42.0957 131.402 41.8197ZM131.635 33.9358C131.894 32.6597 132.361 31.4598 132.999 30.3707C133.139 30.1328 133.059 29.8267 132.821 29.6867C132.583 29.5468 132.276 29.6267 132.137 29.8647C131.444 31.0468 130.936 32.3507 130.655 33.7367C130.6 34.0078 130.775 34.2717 131.046 34.3267C131.316 34.3818 131.58 34.2067 131.635 33.9358ZM135.442 27.4367C136.403 26.6048 137.501 25.9278 138.697 25.4427C138.953 25.3398 139.077 25.0477 138.973 24.7917C138.869 24.5358 138.578 24.4128 138.322 24.5157C137.023 25.0428 135.831 25.7778 134.788 26.6797C134.579 26.8608 134.556 27.1767 134.737 27.3847C134.918 27.5938 135.234 27.6168 135.442 27.4367ZM142.422 24.6118C142.639 24.5998 142.858 24.5938 143.079 24.5938H146.394C146.67 24.5938 146.894 24.3698 146.894 24.0938C146.894 23.8178 146.67 23.5938 146.394 23.5938H143.079C142.84 23.5938 142.602 23.5997 142.367 23.6127C142.091 23.6288 141.88 23.8647 141.895 24.1398C141.91 24.4158 142.146 24.6267 142.422 24.6118ZM150.394 24.5938H154.394C154.67 24.5938 154.894 24.3698 154.894 24.0938C154.894 23.8178 154.67 23.5938 154.394 23.5938H150.394C150.118 23.5938 149.894 23.8178 149.894 24.0938C149.894 24.3698 150.118 24.5938 150.394 24.5938ZM158.394 24.5938H162.394C162.67 24.5938 162.894 24.3698 162.894 24.0938C162.894 23.8178 162.67 23.5938 162.394 23.5938H158.394C158.118 23.5938 157.894 23.8178 157.894 24.0938C157.894 24.3698 158.118 24.5938 158.394 24.5938ZM166.394 24.5938H170.394C170.67 24.5938 170.894 24.3698 170.894 24.0938C170.894 23.8178 170.67 23.5938 170.394 23.5938H166.394C166.118 23.5938 165.894 23.8178 165.894 24.0938C165.894 24.3698 166.118 24.5938 166.394 24.5938ZM174.394 24.5938H178.394C178.67 24.5938 178.894 24.3698 178.894 24.0938C178.894 23.8178 178.67 23.5938 178.394 23.5938H174.394C174.118 23.5938 173.894 23.8178 173.894 24.0938C173.894 24.3698 174.118 24.5938 174.394 24.5938ZM182.394 24.5938H186.394C186.67 24.5938 186.894 24.3698 186.894 24.0938C186.894 23.8178 186.67 23.5938 186.394 23.5938H182.394C182.118 23.5938 181.894 23.8178 181.894 24.0938C181.894 24.3698 182.118 24.5938 182.394 24.5938ZM190.394 24.5938H194.394C194.67 24.5938 194.894 24.3698 194.894 24.0938C194.894 23.8178 194.67 23.5938 194.394 23.5938H190.394C190.118 23.5938 189.894 23.8178 189.894 24.0938C189.894 24.3698 190.118 24.5938 190.394 24.5938ZM198.394 24.5938H202.394C202.67 24.5938 202.894 24.3698 202.894 24.0938C202.894 23.8178 202.67 23.5938 202.394 23.5938H198.394C198.118 23.5938 197.894 23.8178 197.894 24.0938C197.894 24.3698 198.118 24.5938 198.394 24.5938ZM206.394 24.5938H210.394C210.67 24.5938 210.894 24.3698 210.894 24.0938C210.894 23.8178 210.67 23.5938 210.394 23.5938H206.394C206.118 23.5938 205.894 23.8178 205.894 24.0938C205.894 24.3698 206.118 24.5938 206.394 24.5938ZM214.394 24.5938H218.394C218.67 24.5938 218.894 24.3698 218.894 24.0938C218.894 23.8178 218.67 23.5938 218.394 23.5938H214.394C214.118 23.5938 213.894 23.8178 213.894 24.0938C213.894 24.3698 214.118 24.5938 214.394 24.5938ZM222.394 24.5938H226.394C226.67 24.5938 226.894 24.3698 226.894 24.0938C226.894 23.8178 226.67 23.5938 226.394 23.5938H222.394C222.118 23.5938 221.894 23.8178 221.894 24.0938C221.894 24.3698 222.118 24.5938 222.394 24.5938ZM230.394 24.5938H230.741C231.943 24.5938 233.101 24.7747 234.191 25.1107C234.455 25.1927 234.735 25.0447 234.816 24.7808C234.898 24.5168 234.75 24.2368 234.486 24.1557C233.302 23.7897 232.044 23.5938 230.741 23.5938H230.394C230.118 23.5938 229.894 23.8178 229.894 24.0938C229.894 24.3698 230.118 24.5938 230.394 24.5938ZM237.604 26.8217C238.639 27.5747 239.546 28.4948 240.285 29.5408C240.444 29.7657 240.756 29.8197 240.982 29.6607C241.208 29.5008 241.261 29.1887 241.102 28.9637C240.3 27.8277 239.316 26.8307 238.192 26.0127C237.969 25.8507 237.656 25.8997 237.494 26.1228C237.331 26.3468 237.381 26.6587 237.604 26.8217ZM241.947 32.9768C242.254 34.0208 242.418 35.1258 242.418 36.2698C242.418 36.5468 242.642 36.7698 242.918 36.7698C243.194 36.7698 243.418 36.5468 243.418 36.2698C243.418 35.0298 243.24 33.8288 242.907 32.6948C242.829 32.4298 242.551 32.2778 242.286 32.3558C242.021 32.4338 241.87 32.7118 241.947 32.9768Z" fill="#132529"/>
<path fill-rule="evenodd" clip-rule="evenodd" d="M377.792 366.738C377.792 380.138 302.581 391 209.803 391C117.025 391 41.813 380.138 41.813 366.738C41.813 353.338 117.025 342.476 209.803 342.476C302.581 342.476 377.792 353.338 377.792 366.738Z" fill="#67BC93"/>
<path fill-rule="evenodd" clip-rule="evenodd" d="M209.803 391C117.025 391 41.813 380.138 41.813 366.738C41.813 353.338 117.025 342.476 209.803 342.476C302.581 342.476 377.792 353.338 377.792 366.738C377.792 380.138 302.581 391 209.803 391Z" fill="white"/>
<path fill-rule="evenodd" clip-rule="evenodd" d="M373.468 86.7338V249.964C373.468 261.074 364.458 270.084 353.348 270.084H66.2579C55.1479 270.084 46.1379 261.074 46.1379 249.964V86.7338C46.1379 86.2538 46.1579 85.7838 46.1979 85.3138C46.9179 74.8638 55.6279 66.6038 66.2579 66.6038H353.348C363.978 66.6038 372.688 74.8638 373.408 85.3138C373.447 85.7838 373.468 86.2538 373.468 86.7338Z" fill="#FFFFFE"/>
<path fill-rule="evenodd" clip-rule="evenodd" d="M373.468 86.7338H372.968V249.964C372.968 255.382 370.772 260.284 367.221 263.837C363.668 267.388 358.766 269.584 353.348 269.584H66.2579C60.8399 269.584 55.9379 267.388 52.3849 263.837C48.8339 260.284 46.6379 255.382 46.6379 249.964V86.7338C46.6379 86.2678 46.6569 85.8128 46.6959 85.3558L46.6969 85.3478C47.3989 75.1598 55.8929 67.1028 66.2579 67.1038H353.348C363.713 67.1028 372.207 75.1598 372.909 85.3478L372.91 85.3548C372.948 85.8128 372.968 86.2678 372.968 86.7338H373.968C373.968 86.2398 373.947 85.7558 373.907 85.2718L373.408 85.3138L373.907 85.2788C373.168 74.5678 364.243 66.1048 353.348 66.1038H66.2579C55.3629 66.1048 46.4379 74.5678 45.6989 85.2788L46.1979 85.3138L45.6999 85.2708C45.6579 85.7558 45.6379 86.2398 45.6379 86.7338V249.964C45.6379 261.35 54.8719 270.584 66.2579 270.584H353.348C364.735 270.584 373.968 261.35 373.968 249.964V86.7338H373.468Z" fill="#132529"/>
<path fill-rule="evenodd" clip-rule="evenodd" d="M345.847 262.495H74.784C64.37 262.495 55.928 254.053 55.928 243.639V92.8547H364.703V243.639C364.703 254.053 356.261 262.495 345.847 262.495Z" fill="#132529"/>
<path fill-rule="evenodd" clip-rule="evenodd" d="M345.843 261.999H316.768C314.983 258.019 313.015 253.952 310.894 250.046L318.548 244.564L313.398 232.453C315.038 230.444 316.428 228.234 317.527 225.884L330.658 225.164L332.658 213.114L320.458 208.203C320.178 205.634 319.588 203.114 318.708 200.684L327.487 190.904L320.378 180.964L308.268 186.104C306.258 184.494 304.068 183.134 301.728 182.044L301.018 168.904L288.958 166.914L284.018 179.064C281.458 179.364 278.947 179.954 276.527 180.824L274.544 179.049C274.479 176.655 275.253 174.039 275.253 174.039L273.693 172.662C279.113 170.572 283.656 165.493 283.003 159.327C282.734 156.785 280.865 154.958 278.44 154.354C277.867 154.212 277.304 154.15 276.75 154.15C274.208 154.15 271.843 155.46 269.462 156.359C268.292 156.8 267.126 156.976 265.964 156.976C261.876 156.976 257.819 154.801 253.659 154.354C252.814 154.263 251.933 154.208 251.044 154.208C247.126 154.208 243.042 155.269 241.104 158.972C241.104 158.972 232.898 159.935 229.303 166.676C225.708 173.415 232.541 182.746 232.541 182.746C232.541 182.746 232.933 182.273 233.609 182.045L233.446 182.218C233.446 182.218 231.492 183.945 232.269 188.31C232.428 189.204 232.63 190.072 232.863 190.89L227.516 191.14C226.527 189.492 225.345 187.966 224.005 186.604L226.9 177.257L219.011 172.738L212.41 179.94C210.552 179.485 208.646 179.246 206.726 179.216L202.156 170.553L193.387 172.939L193.85 182.723C192.203 183.711 190.675 184.893 189.305 186.229L179.954 183.343L179.649 183.874V171.234H186.868L190.438 155.294C193.518 154.424 196.478 153.184 199.268 151.624L213.058 160.394L223.788 149.664L215.078 135.874C216.628 133.074 217.857 130.114 218.728 127.034L234.688 123.474V108.294L218.728 104.754C217.857 101.674 216.638 98.6939 215.078 95.8939L216.687 93.3599H364.203V243.64C364.203 248.709 362.15 253.295 358.827 256.62C355.503 259.944 350.916 261.999 345.843 261.999ZM206.954 261.999H179.649V216.651L185.458 216.376C186.434 218.03 187.607 219.553 188.956 220.918L186.046 230.217L193.936 234.737L200.503 227.596C202.367 228.064 204.273 228.303 206.199 228.315L210.756 236.983L213.847 236.142C211.391 239.65 208.856 251.515 206.954 261.999ZM60.0781 254.619C58.6361 252.688 57.5651 250.464 56.9711 248.053L60.0781 251.501V254.619ZM56.4331 240.3V225.921L58.5831 226.53C58.9521 228.173 59.4531 229.782 60.0781 231.341V235.2L56.4331 240.3ZM219.443 232.795L219.076 224.808C220.741 223.826 222.278 222.648 223.666 221.296L233.009 224.201L236.87 217.453L237.528 216.311L230.291 209.718C230.759 207.855 231.001 205.94 231.022 204.016L239.678 199.465L239.006 196.999C239.311 197.009 239.503 197.009 239.503 197.009C239.503 197.009 241.705 201.78 243.686 204.795L242.728 210.564L244.708 211.364L245.01 211.485C245.04 212.123 245.069 212.779 245.092 213.431C243.562 213.77 241.908 214.558 240.824 216.278C240.818 216.287 240.812 216.296 240.807 216.305C240.805 216.308 240.803 216.312 240.801 216.315C240.792 216.329 240.784 216.342 240.776 216.356C240.025 218.3 239.872 220.805 239.872 222.53C239.872 223.725 239.945 224.545 239.945 224.545C239.945 224.545 239.766 224.616 239.426 224.736C236.954 225.657 226.184 229.71 219.443 232.795ZM287.674 227.572C282.754 227.572 277.907 225.281 274.828 220.974C269.748 213.894 271.388 204.034 278.468 198.964C281.252 196.97 284.463 196.011 287.644 196.011C292.563 196.011 297.409 198.304 300.487 202.604C305.568 209.694 303.928 219.554 296.848 224.624C294.064 226.614 290.853 227.572 287.674 227.572ZM206.462 215.469C201.29 215.469 196.554 212.029 195.135 206.807C193.43 200.541 197.129 194.085 203.382 192.386C204.415 192.104 205.454 191.97 206.476 191.97C211.648 191.97 216.384 195.41 217.803 200.632C219.508 206.898 215.81 213.354 209.556 215.053C208.523 215.334 207.484 215.469 206.462 215.469ZM56.4331 209.388V93.3599H141.996L143.538 95.8139C141.968 98.6039 140.748 101.574 139.898 104.664L123.938 108.214V123.394L139.898 126.954C140.701 129.893 141.835 132.734 143.282 135.41H72.4631C65.6221 135.41 60.0781 140.955 60.0781 147.794V187.455L56.4831 190.69L60.0781 197.042V207.51C59.9031 207.959 59.7381 208.412 59.5831 208.87L56.4331 209.388ZM179.649 204.705V195.057L182.67 197.803C182.202 199.667 181.963 201.574 181.955 203.491L179.649 204.705ZM179.388 135.494C168.558 135.494 159.778 126.714 159.778 115.884C159.778 105.054 168.558 96.2739 179.388 96.2739C190.218 96.2739 198.998 105.054 198.998 115.884C198.998 126.714 190.218 135.494 179.388 135.494Z" fill="#54585A"/>
<path fill-rule="evenodd" clip-rule="evenodd" d="M373.408 85.3138H46.198C46.918 74.8638 55.628 66.6038 66.258 66.6038H353.348C363.978 66.6038 372.688 74.8638 373.408 85.3138Z" fill="#B9B9B9"/>
<path fill-rule="evenodd" clip-rule="evenodd" d="M373.408 85.3138V84.8138H46.1981V85.3138L46.6971 85.3478C47.3991 75.1598 55.8931 67.1028 66.2581 67.1038H353.348C363.713 67.1028 372.207 75.1598 372.91 85.3478L373.408 85.3138V84.8138V85.3138L373.907 85.2788C373.168 74.5678 364.243 66.1048 353.348 66.1038H66.2581C55.3631 66.1048 46.4381 74.5678 45.6991 85.2788L45.6621 85.8138H373.944L373.907 85.2788L373.408 85.3138Z" fill="#132529"/>
<path fill-rule="evenodd" clip-rule="evenodd" d="M86.4071 75.9588C86.4071 77.9268 84.8121 79.5228 82.8431 79.5228C80.8751 79.5228 79.2791 77.9268 79.2791 75.9588C79.2791 73.9908 80.8751 72.3948 82.8431 72.3948C84.8121 72.3948 86.4071 73.9908 86.4071 75.9588Z" fill="#132529"/>
<path fill-rule="evenodd" clip-rule="evenodd" d="M101.476 75.9588C101.476 77.9268 99.8799 79.5228 97.9119 79.5228C95.9439 79.5228 94.3479 77.9268 94.3479 75.9588C94.3479 73.9908 95.9439 72.3948 97.9119 72.3948C99.8799 72.3948 101.476 73.9908 101.476 75.9588Z" fill="#132529"/>
<path fill-rule="evenodd" clip-rule="evenodd" d="M116.544 75.9588C116.544 77.9268 114.949 79.5228 112.981 79.5228C111.012 79.5228 109.417 77.9268 109.417 75.9588C109.417 73.9908 111.012 72.3948 112.981 72.3948C114.949 72.3948 116.544 73.9908 116.544 75.9588Z" fill="#132529"/>
<path fill-rule="evenodd" clip-rule="evenodd" d="M364.703 92.8599H364.203V243.64C364.203 248.709 362.15 253.295 358.827 256.62C355.503 259.944 350.916 261.999 345.843 261.999H74.7831C65.8661 262 58.4381 255.633 56.7841 247.204L56.7561 247.061L56.6451 246.944L56.2831 247.289H56.7831V247.201L56.7731 247.153C56.5501 246.015 56.4331 244.837 56.4331 243.64V93.3599H364.703V92.8599H364.203H364.703V92.3599H55.4331V243.64C55.4331 244.902 55.5561 246.144 55.7921 247.346L56.2831 247.249H55.7831V247.49L55.9311 247.645L56.2931 247.3L55.8031 247.396C57.5481 256.288 65.3791 262.998 74.7831 262.999H345.843C356.539 262.999 365.203 254.326 365.203 243.64V92.3599H364.703V92.8599Z" fill="#132529"/>
<path fill-rule="evenodd" clip-rule="evenodd" d="M354.95 142.432C349.81 142.432 345.651 138.271 345.651 133.132C345.651 128.001 349.81 123.831 354.95 123.831C360.09 123.831 364.25 128.001 364.25 133.132C364.25 138.271 360.09 142.432 354.95 142.432ZM364.41 116.181C363.09 115.442 361.68 114.862 360.22 114.452L358.53 106.882H351.33L349.651 114.452C348.18 114.851 346.77 115.442 345.45 116.181L338.95 112.021L333.861 117.112L337.95 123.612C337.2 124.942 336.62 126.351 336.22 127.811L328.651 129.492V136.692L336.22 138.382C336.62 139.862 337.2 141.282 337.95 142.612L333.79 149.152L338.88 154.242L345.42 150.081C346.74 150.831 348.151 151.411 349.62 151.822L351.3 159.382H358.5L360.19 151.822C361.651 151.411 363.06 150.822 364.38 150.081L364.71 150.291V115.992L364.41 116.181Z" fill="#292929"/>
<path fill-rule="evenodd" clip-rule="evenodd" d="M179.388 135.494C168.558 135.494 159.778 126.714 159.778 115.884C159.778 105.054 168.558 96.2738 179.388 96.2738C190.218 96.2738 198.998 105.054 198.998 115.884C198.998 126.714 190.218 135.494 179.388 135.494ZM234.688 123.474V108.294L218.728 104.754C217.857 101.674 216.638 98.6938 215.078 95.8938L217.008 92.8538H141.678L143.538 95.8138C141.968 98.6038 140.748 101.574 139.898 104.664L123.938 108.214V123.394L139.898 126.954C140.748 130.064 141.968 133.064 143.538 135.874L134.768 149.664L145.508 160.394L159.288 151.624C162.088 153.194 165.058 154.424 168.148 155.294L171.688 171.234H186.868L190.438 155.294C193.518 154.424 196.478 153.184 199.268 151.624L213.058 160.394L223.788 149.664L215.078 135.874C216.628 133.074 217.857 130.114 218.728 127.034L234.688 123.474Z" fill="#292929"/>
<path fill-rule="evenodd" clip-rule="evenodd" d="M102.023 208.9C96.2631 202.499 86.4031 201.98 80.0031 207.74C73.6031 213.499 73.0831 223.36 78.8431 229.76C84.6031 236.16 94.4631 236.67 100.863 230.909C107.263 225.15 107.783 215.3 102.023 208.9ZM134.003 227.71L134.643 215.67L122.163 212.15C121.583 209.68 120.723 207.27 119.603 204.99L127.143 194.4L119.063 185.43L107.763 191.82C105.603 190.47 103.303 189.36 100.883 188.53L98.7231 175.73L86.6831 175.09L83.2031 187.61C80.7231 188.16 78.3231 189.02 76.0431 190.15L65.4631 182.61L56.4831 190.69L62.8831 201.999C61.5031 204.15 60.4031 206.45 59.5831 208.87L55.9331 209.47V225.78L58.5831 226.53C59.1431 229.02 60.0031 231.43 61.1431 233.71L55.9331 240.999L56.2831 247.249V247.289L56.2931 247.3L61.6631 253.26L72.9831 246.87C75.1431 248.26 77.4631 249.38 79.8831 250.2L81.9431 262.49V262.499L82.0431 263.01L94.0831 263.65L94.4031 262.499V262.49L97.5631 251.13C100.063 250.57 102.463 249.72 104.763 248.59L115.323 256.119L124.303 248.05L117.923 236.73C119.283 234.58 120.383 232.28 121.183 229.869L134.003 227.71Z" fill="#132529"/>
<path fill-rule="evenodd" clip-rule="evenodd" d="M209.556 215.053C203.291 216.758 196.835 213.06 195.135 206.807C193.43 200.541 197.129 194.085 203.382 192.386C209.648 190.68 216.104 194.379 217.803 200.632C219.508 206.898 215.81 213.354 209.556 215.053ZM230.291 209.718C230.759 207.855 231.001 205.94 231.022 204.016L239.678 199.465L237.286 190.683L227.516 191.14C226.527 189.492 225.345 187.966 224.005 186.604L226.9 177.257L219.011 172.738L212.41 179.94C210.552 179.485 208.646 179.246 206.726 179.216L202.156 170.553L193.387 172.939L193.85 182.723C192.203 183.711 190.675 184.893 189.305 186.229L179.954 183.343L175.429 191.221L182.67 197.803C182.202 199.667 181.963 201.574 181.955 203.491L173.283 208.057L175.675 216.839L185.458 216.376C186.434 218.03 187.607 219.553 188.956 220.918L186.046 230.217L193.936 234.737L200.503 227.596C202.367 228.064 204.273 228.303 206.199 228.315L210.756 236.983L219.526 234.597L219.076 224.808C220.741 223.826 222.278 222.648 223.666 221.296L233.009 224.201L236.87 217.453L237.528 216.311L230.291 209.718Z" fill="#292929"/>
<path fill-rule="evenodd" clip-rule="evenodd" d="M296.848 224.624C289.758 229.694 279.898 228.064 274.828 220.974C269.748 213.894 271.388 204.034 278.468 198.964C285.558 193.884 295.418 195.524 300.487 202.604C305.568 209.694 303.928 219.554 296.848 224.624ZM330.658 225.164L332.658 213.114L320.458 208.203C320.178 205.634 319.588 203.114 318.708 200.684L327.487 190.904L320.378 180.964L308.268 186.104C306.258 184.494 304.068 183.134 301.728 182.044L301.018 168.904L288.958 166.914L284.018 179.064C281.458 179.364 278.947 179.954 276.527 180.824L266.718 172.044L256.788 179.154L261.938 191.254C260.518 193.034 259.288 194.934 258.268 196.953C258.128 197.234 257.987 197.514 257.858 197.794L244.728 198.524L242.728 210.564L244.708 211.364L254.928 215.484C255.208 218.034 255.788 220.554 256.678 222.974L247.898 232.784L255.008 242.714L267.118 237.554C269.118 239.184 271.318 240.554 273.648 241.644L274.328 254.724L286.378 256.714L291.308 244.654C293.878 244.374 296.398 243.784 298.818 242.894L308.608 251.684L318.548 244.564L313.398 232.453C315.038 230.444 316.428 228.234 317.527 225.884L330.658 225.164Z" fill="#292929"/>
<path fill-rule="evenodd" clip-rule="evenodd" d="M167.265 290.939H72.4629C65.8979 290.939 60.5779 285.619 60.5779 279.055V147.794C60.5779 141.231 65.8979 135.909 72.4629 135.909H167.265C173.828 135.909 179.149 141.231 179.149 147.794V279.055C179.149 285.619 173.828 290.939 167.265 290.939Z" fill="#67BC93"/>
<path fill-rule="evenodd" clip-rule="evenodd" d="M167.265 290.939V290.439H72.4629C69.3169 290.438 66.4739 289.165 64.4119 287.105C62.3509 285.043 61.0779 282.2 61.0779 279.055V147.794C61.0779 144.649 62.3509 141.806 64.4119 139.744C66.4739 137.683 69.3169 136.41 72.4629 136.409H167.265C170.41 136.41 173.253 137.683 175.315 139.744C177.376 141.806 178.649 144.649 178.649 147.794V279.055C178.649 282.2 177.376 285.043 175.315 287.105C173.253 289.165 170.41 290.438 167.265 290.439V291.439C174.104 291.438 179.649 285.895 179.649 279.055V147.794C179.649 140.955 174.105 135.41 167.265 135.41H72.4629C65.6219 135.41 60.0779 140.955 60.0779 147.794V279.055C60.0779 285.895 65.6219 291.438 72.4629 291.439H167.265V290.939Z" fill="#132529"/>
<path fill-rule="evenodd" clip-rule="evenodd" d="M167.265 290.939V290.439H72.4629C69.3169 290.438 66.4739 289.165 64.4119 287.105C62.3509 285.043 61.0779 282.2 61.0779 279.055V147.794C61.0779 144.649 62.3509 141.806 64.4119 139.744C66.4739 137.683 69.3169 136.41 72.4629 136.409H167.265C170.41 136.41 173.253 137.683 175.315 139.744C177.376 141.806 178.649 144.649 178.649 147.794V279.055C178.649 282.2 177.376 285.043 175.315 287.105C173.253 289.165 170.41 290.438 167.265 290.439V290.939Z" fill="#3E4042"/>
<path fill-rule="evenodd" clip-rule="evenodd" d="M167.265 290.939V290.439C170.41 290.438 173.253 289.165 175.315 287.105C177.376 285.043 178.649 282.2 178.649 279.055V147.794C178.649 144.649 177.376 141.806 175.315 139.744C173.253 137.683 170.41 136.41 167.265 136.409H72.4629C69.3169 136.41 66.4739 137.683 64.4119 139.744C62.3509 141.806 61.0779 144.649 61.0779 147.794V279.055C61.0779 282.2 62.3509 285.043 64.4119 287.105C66.4739 289.165 69.3169 290.438 72.4629 290.439H167.265V290.939H72.4629C65.8979 290.939 60.5779 285.619 60.5779 279.055V147.794C60.5779 141.231 65.8979 135.909 72.4629 135.909H167.265C173.828 135.909 179.149 141.231 179.149 147.794V279.055C179.149 285.619 173.828 290.939 167.265 290.939Z" fill="#09181B"/>
<path fill-rule="evenodd" clip-rule="evenodd" d="M190.187 159.503V290.763C190.187 297.333 184.867 302.654 178.297 302.654H83.4969C76.9369 302.654 71.6169 297.333 71.6169 290.763V159.503C71.6169 152.943 76.9369 147.623 83.4969 147.623H178.297C184.867 147.623 190.187 152.943 190.187 159.503Z" fill="#FFFFFE"/>
<path fill-rule="evenodd" clip-rule="evenodd" d="M190.187 159.503H189.687V290.763C189.687 293.912 188.414 296.756 186.352 298.819C184.29 300.88 181.446 302.153 178.297 302.154H83.4969C80.3539 302.153 77.5119 300.88 75.4509 298.819C73.3909 296.756 72.1179 293.912 72.1169 290.763V159.503C72.1179 156.36 73.3909 153.518 75.4509 151.457C77.5119 149.397 80.3539 148.124 83.4969 148.123H178.297C181.446 148.124 184.29 149.397 186.352 151.457C188.414 153.518 189.687 156.36 189.687 159.503H190.687C190.687 152.667 185.143 147.124 178.297 147.123H83.4969C76.6609 147.124 71.1179 152.667 71.1169 159.503V290.763C71.1169 297.609 76.6609 303.153 83.4969 303.154H178.297C185.143 303.153 190.687 297.609 190.687 290.763V159.503H190.187Z" fill="#132529"/>
<path fill-rule="evenodd" clip-rule="evenodd" d="M190.187 159.503V166.534H71.6169V159.503C71.6169 152.943 76.9369 147.623 83.4969 147.623H178.297C184.867 147.623 190.187 152.943 190.187 159.503Z" fill="#B9B9B9"/>
<path fill-rule="evenodd" clip-rule="evenodd" d="M190.187 159.503H189.687V166.034H72.1169V159.503C72.1179 156.36 73.3909 153.518 75.4509 151.457C77.5119 149.397 80.3539 148.124 83.4969 148.123H178.297C181.446 148.124 184.29 149.397 186.352 151.457C188.414 153.518 189.687 156.36 189.687 159.503H190.687C190.687 152.667 185.143 147.124 178.297 147.123H83.4969C76.6609 147.124 71.1179 152.667 71.1169 159.503V167.034H190.687V159.503H190.187Z" fill="#132529"/>
<path fill-rule="evenodd" clip-rule="evenodd" d="M82.7681 179.569H111.938V174.676H82.7681V179.569Z" fill="#A2A2A2"/>
<path fill-rule="evenodd" clip-rule="evenodd" d="M82.7681 223.435H111.938V218.541H82.7681V223.435Z" fill="#A2A2A2"/>
<path fill-rule="evenodd" clip-rule="evenodd" d="M82.7681 263.213H111.938V258.321H82.7681V263.213Z" fill="#A2A2A2"/>
<path fill-rule="evenodd" clip-rule="evenodd" d="M82.7681 190.378H165.617V186.789H82.7681V190.378Z" fill="#132529"/>
<path fill-rule="evenodd" clip-rule="evenodd" d="M82.7681 197.156H150.678V193.659H82.7681V197.156Z" fill="#132529"/>
<path fill-rule="evenodd" clip-rule="evenodd" d="M82.7681 203.908H159.571V200.411H82.7681V203.908Z" fill="#132529"/>
<path fill-rule="evenodd" clip-rule="evenodd" d="M82.7681 210.654H159.571V207.157H82.7681V210.654Z" fill="#132529"/>
<path fill-rule="evenodd" clip-rule="evenodd" d="M82.7681 230.157H165.617V226.568H82.7681V230.157Z" fill="#132529"/>
<path fill-rule="evenodd" clip-rule="evenodd" d="M82.7681 236.934H150.678V233.437H82.7681V236.934Z" fill="#132529"/>
<path fill-rule="evenodd" clip-rule="evenodd" d="M82.7681 243.686H159.571V240.189H82.7681V243.686Z" fill="#132529"/>
<path fill-rule="evenodd" clip-rule="evenodd" d="M82.7681 273.839H165.617V270.25H82.7681V273.839Z" fill="#132529"/>
<path fill-rule="evenodd" clip-rule="evenodd" d="M82.7681 280.617H150.678V277.119H82.7681V280.617Z" fill="#132529"/>
<path fill-rule="evenodd" clip-rule="evenodd" d="M82.7681 287.369H159.571V283.871H82.7681V287.369Z" fill="#132529"/>
<path fill-rule="evenodd" clip-rule="evenodd" d="M323.813 56.6099V109.66C323.813 117.49 317.473 123.83 309.643 123.83H187.453C179.633 123.83 173.283 117.49 173.283 109.66V56.6099C173.283 48.7799 179.633 42.4299 187.453 42.4299H309.643C317.473 42.4299 323.813 48.7799 323.813 56.6099Z" fill="#FFFFFE"/>
<path fill-rule="evenodd" clip-rule="evenodd" d="M323.813 56.6099H323.313V109.66C323.312 113.438 321.784 116.853 319.31 119.328C316.836 121.802 313.421 123.33 309.643 123.33H187.453C183.679 123.33 180.265 121.802 177.789 119.327C175.314 116.852 173.783 113.438 173.783 109.66V56.6099C173.783 52.8309 175.314 49.4139 177.789 46.9369C180.265 44.4609 183.68 42.9299 187.453 42.9299H309.643C313.421 42.9299 316.835 44.4609 319.31 46.9369C321.784 49.4139 323.312 52.8309 323.313 56.6099H324.313C324.312 48.5039 317.749 41.9299 309.643 41.9299H187.453C179.356 41.9309 172.783 48.5029 172.783 56.6099V109.66C172.783 117.766 179.357 124.33 187.453 124.33H309.643C317.749 124.33 324.313 117.766 324.313 109.66V56.6099H323.813Z" fill="#121514"/>
<path fill-rule="evenodd" clip-rule="evenodd" d="M323.813 56.6099V57.8199H173.283V56.6099C173.283 48.7799 179.633 42.4299 187.453 42.4299H309.643C317.473 42.4299 323.813 48.7799 323.813 56.6099Z" fill="#D22630"/>
<path fill-rule="evenodd" clip-rule="evenodd" d="M323.813 56.6099H323.313V57.3199H173.783V56.6099C173.783 52.8309 175.314 49.4139 177.789 46.9369C180.265 44.4609 183.68 42.9299 187.453 42.9299H309.643C313.421 42.9299 316.835 44.4609 319.31 46.9369C321.784 49.4139 323.312 52.8309 323.313 56.6099H324.313C324.312 48.5039 317.749 41.9299 309.643 41.9299H187.453C179.356 41.9309 172.783 48.5029 172.783 56.6099V58.3199H324.313V56.6099H323.813Z" fill="#132529"/>
<path fill-rule="evenodd" clip-rule="evenodd" d="M195.397 52.6589C194.549 53.5069 193.175 53.5069 192.327 52.6589C191.48 51.8119 191.48 50.4379 192.327 49.5899C193.175 48.7419 194.549 48.7419 195.397 49.5899C196.244 50.4379 196.244 51.8119 195.397 52.6589Z" fill="#132529"/>
<path fill-rule="evenodd" clip-rule="evenodd" d="M205.478 52.6589C204.63 53.5069 203.256 53.5069 202.408 52.6589C201.561 51.8119 201.561 50.4379 202.408 49.5899C203.256 48.7419 204.63 48.7419 205.478 49.5899C206.325 50.4379 206.325 51.8119 205.478 52.6589Z" fill="#132529"/>
<path fill-rule="evenodd" clip-rule="evenodd" d="M215.559 52.6589C214.711 53.5069 213.336 53.5069 212.488 52.6589C211.642 51.8119 211.642 50.4379 212.488 49.5899C213.336 48.7419 214.711 48.7419 215.559 49.5899C216.405 50.4379 216.405 51.8119 215.559 52.6589Z" fill="#132529"/>
<path fill-rule="evenodd" clip-rule="evenodd" d="M224.086 109.608H220.086C219.81 109.608 219.586 109.832 219.586 110.108C219.586 110.384 219.81 110.608 220.086 110.608H224.086C224.362 110.608 224.586 110.384 224.586 110.108C224.586 109.832 224.362 109.608 224.086 109.608ZM216.086 109.608H212.086C211.81 109.608 211.586 109.832 211.586 110.108C211.586 110.384 211.81 110.608 212.086 110.608H216.086C216.362 110.608 216.586 110.384 216.586 110.108C216.586 109.832 216.362 109.608 216.086 109.608ZM208.086 109.608H204.086C203.81 109.608 203.586 109.832 203.586 110.108C203.586 110.384 203.81 110.608 204.086 110.608H208.086C208.362 110.608 208.586 110.384 208.586 110.108C208.586 109.832 208.362 109.608 208.086 109.608ZM200.086 109.608H196.086C195.81 109.608 195.586 109.832 195.586 110.108C195.586 110.384 195.81 110.608 196.086 110.608H200.086C200.362 110.608 200.586 110.384 200.586 110.108C200.586 109.832 200.362 109.608 200.086 109.608ZM192.086 109.608H188.086C187.81 109.608 187.586 109.832 187.586 110.108C187.586 110.384 187.81 110.608 188.086 110.608H192.086C192.362 110.608 192.586 110.384 192.586 110.108C192.586 109.832 192.362 109.608 192.086 109.608ZM184.086 109.608H183.381V107.312C183.381 107.036 183.158 106.812 182.881 106.812C182.605 106.812 182.381 107.036 182.381 107.312V110.108C182.381 110.239 182.435 110.368 182.528 110.461C182.621 110.554 182.75 110.608 182.881 110.608H184.086C184.362 110.608 184.586 110.384 184.586 110.108C184.586 109.832 184.362 109.608 184.086 109.608ZM183.381 103.312V99.3117C183.381 99.0357 183.158 98.8117 182.881 98.8117C182.605 98.8117 182.381 99.0357 182.381 99.3117V103.312C182.381 103.589 182.605 103.812 182.881 103.812C183.158 103.812 183.381 103.589 183.381 103.312ZM183.381 95.3117V91.3117C183.381 91.0357 183.158 90.8117 182.881 90.8117C182.605 90.8117 182.381 91.0357 182.381 91.3117V95.3117C182.381 95.5887 182.605 95.8117 182.881 95.8117C183.158 95.8117 183.381 95.5887 183.381 95.3117ZM183.381 87.3117V83.3117C183.381 83.0357 183.158 82.8117 182.881 82.8117C182.605 82.8117 182.381 83.0357 182.381 83.3117V87.3117C182.381 87.5887 182.605 87.8117 182.881 87.8117C183.158 87.8117 183.381 87.5887 183.381 87.3117ZM183.381 79.3117V75.3117C183.381 75.0357 183.158 74.8117 182.881 74.8117C182.605 74.8117 182.381 75.0357 182.381 75.3117V79.3117C182.381 79.5887 182.605 79.8117 182.881 79.8117C183.158 79.8117 183.381 79.5887 183.381 79.3117ZM183.381 71.3117V67.5747H182.881V68.0747H183.144C183.42 68.0747 183.644 67.8507 183.644 67.5747C183.644 67.2987 183.42 67.0747 183.144 67.0747H182.881C182.75 67.0747 182.621 67.1277 182.528 67.2207C182.435 67.3147 182.381 67.4427 182.381 67.5747V71.3117C182.381 71.5887 182.605 71.8117 182.881 71.8117C183.158 71.8117 183.381 71.5887 183.381 71.3117ZM187.144 68.0747H191.144C191.42 68.0747 191.644 67.8507 191.644 67.5747C191.644 67.2987 191.42 67.0747 191.144 67.0747H187.144C186.868 67.0747 186.644 67.2987 186.644 67.5747C186.644 67.8507 186.868 68.0747 187.144 68.0747ZM195.144 68.0747H199.144C199.42 68.0747 199.644 67.8507 199.644 67.5747C199.644 67.2987 199.42 67.0747 199.144 67.0747H195.144C194.868 67.0747 194.644 67.2987 194.644 67.5747C194.644 67.8507 194.868 68.0747 195.144 68.0747ZM203.144 68.0747H207.144C207.42 68.0747 207.644 67.8507 207.644 67.5747C207.644 67.2987 207.42 67.0747 207.144 67.0747H203.144C202.868 67.0747 202.644 67.2987 202.644 67.5747C202.644 67.8507 202.868 68.0747 203.144 68.0747ZM211.144 68.0747H215.144C215.42 68.0747 215.644 67.8507 215.644 67.5747C215.644 67.2987 215.42 67.0747 215.144 67.0747H211.144C210.868 67.0747 210.644 67.2987 210.644 67.5747C210.644 67.8507 210.868 68.0747 211.144 68.0747ZM219.144 68.0747H223.144C223.42 68.0747 223.644 67.8507 223.644 67.5747C223.644 67.2987 223.42 67.0747 223.144 67.0747H219.144C218.868 67.0747 218.644 67.2987 218.644 67.5747C218.644 67.8507 218.868 68.0747 219.144 68.0747ZM227.144 68.0747H231.144C231.42 68.0747 231.644 67.8507 231.644 67.5747C231.644 67.2987 231.42 67.0747 231.144 67.0747H227.144C226.868 67.0747 226.644 67.2987 226.644 67.5747C226.644 67.8507 226.868 68.0747 227.144 68.0747ZM231.586 70.6327V74.6327C231.586 74.9087 231.81 75.1327 232.086 75.1327C232.362 75.1327 232.586 74.9087 232.586 74.6327V70.6327C232.586 70.3567 232.362 70.1327 232.086 70.1327C231.81 70.1327 231.586 70.3567 231.586 70.6327ZM231.586 78.6327V82.6327C231.586 82.9087 231.81 83.1327 232.086 83.1327C232.362 83.1327 232.586 82.9087 232.586 82.6327V78.6327C232.586 78.3567 232.362 78.1327 232.086 78.1327C231.81 78.1327 231.586 78.3567 231.586 78.6327ZM231.586 86.6327V90.6327C231.586 90.9087 231.81 91.1327 232.086 91.1327C232.362 91.1327 232.586 90.9087 232.586 90.6327V86.6327C232.586 86.3567 232.362 86.1327 232.086 86.1327C231.81 86.1327 231.586 86.3567 231.586 86.6327ZM231.586 94.6327V98.6327C231.586 98.9087 231.81 99.1327 232.086 99.1327C232.362 99.1327 232.586 98.9087 232.586 98.6327V94.6327C232.586 94.3567 232.362 94.1327 232.086 94.1327C231.81 94.1327 231.586 94.3567 231.586 94.6327ZM231.586 102.633V106.633C231.586 106.909 231.81 107.133 232.086 107.133C232.362 107.133 232.586 106.909 232.586 106.633V102.633C232.586 102.357 232.362 102.133 232.086 102.133C231.81 102.133 231.586 102.357 231.586 102.633ZM232.086 109.608H228.086C227.81 109.608 227.586 109.832 227.586 110.108C227.586 110.384 227.81 110.608 228.086 110.608H232.086C232.362 110.608 232.586 110.384 232.586 110.108C232.586 109.832 232.362 109.608 232.086 109.608Z" fill="#132529"/>
<path fill-rule="evenodd" clip-rule="evenodd" d="M239.678 70.5617H296.307V67.5747H239.678V70.5617Z" fill="#132529"/>
<path fill-rule="evenodd" clip-rule="evenodd" d="M239.678 76.7558H283.115V73.7688H239.678V76.7558Z" fill="#132529"/>
<path fill-rule="evenodd" clip-rule="evenodd" d="M239.678 82.9507H304.361V79.9287H239.678V82.9507Z" fill="#132529"/>
<path fill-rule="evenodd" clip-rule="evenodd" d="M239.678 88.9678H294.757V85.9458H239.678V88.9678Z" fill="#132529"/>
<path fill-rule="evenodd" clip-rule="evenodd" d="M252.286 364.986C252.286 364.986 225.996 372.526 222.326 373.826C218.985 375.005 209.936 378.175 203.146 377.196C202.476 377.096 201.826 376.955 201.206 376.776C194.326 374.726 191.236 372.816 190.336 368.486C189.426 364.146 192.856 360.976 196.156 358.936C199.456 356.896 217.356 354.766 217.356 354.766L221.676 356.036H221.686L252.286 364.986Z" fill="#B6B6B6"/>
<path fill-rule="evenodd" clip-rule="evenodd" d="M203.146 377.196C202.476 377.096 201.826 376.955 201.206 376.776C194.326 374.726 191.236 372.816 190.336 368.486C189.426 364.146 192.856 360.976 196.156 358.936C199.456 356.896 217.356 354.766 217.356 354.766L221.676 356.036C217.766 357.835 203.186 358.835 200.006 360.665C196.826 362.495 195.286 365.946 197.166 370.606C198.166 373.085 200.846 375.486 203.146 377.196Z" fill="#FFFFFE"/>
<path fill-rule="evenodd" clip-rule="evenodd" d="M248.205 365.574C248.202 365.575 243.263 366.854 237.342 368.544C231.419 370.235 224.525 372.331 220.565 373.986C216.848 375.543 211.428 376.69 206.273 376.688C203.531 376.689 200.864 376.365 198.568 375.624C196.27 374.883 194.354 373.732 193.063 372.092C191.465 370.062 190.834 368.169 190.833 366.49C190.834 364.627 191.612 362.99 192.842 361.692C194.071 360.396 195.753 359.456 197.495 359.035C201.942 357.954 210.259 356.34 216.204 356.343C217.325 356.343 218.36 356.4 219.262 356.526C219.536 356.564 219.788 356.373 219.826 356.1C219.865 355.826 219.674 355.574 219.4 355.535C218.436 355.401 217.359 355.343 216.204 355.343C210.094 355.345 201.764 356.972 197.259 358.063C195.333 358.531 193.493 359.555 192.117 361.004C190.742 362.45 189.832 364.339 189.833 366.49C189.832 368.427 190.571 370.547 192.278 372.711C193.729 374.552 195.834 375.794 198.261 376.576C200.69 377.358 203.453 377.688 206.273 377.688C211.576 377.686 217.081 376.525 220.951 374.909C224.819 373.29 231.712 371.19 237.617 369.506C240.571 368.663 243.281 367.921 245.253 367.391C247.224 366.861 248.452 366.543 248.456 366.542C248.723 366.473 248.883 366.2 248.814 365.933C248.745 365.665 248.472 365.505 248.205 365.574Z" fill="#132529"/>
<path fill-rule="evenodd" clip-rule="evenodd" d="M203.782 376.398L203.709 376.356C203.326 376.137 201.532 375.059 199.857 373.366C198.176 371.671 196.648 369.383 196.653 366.762C196.654 365.83 196.842 364.847 197.291 363.806C197.833 362.548 199.003 361.627 200.651 360.917C203.114 359.854 206.565 359.325 210.022 358.788C213.484 358.245 216.951 357.696 219.544 356.483C219.794 356.366 219.901 356.068 219.784 355.818C219.666 355.568 219.369 355.461 219.119 355.578C215.936 357.08 210.941 357.566 206.43 358.358C204.171 358.758 202.027 359.237 200.255 359.999C198.49 360.757 197.062 361.819 196.373 363.409C195.872 364.568 195.653 365.694 195.653 366.762C195.66 369.99 197.612 372.609 199.502 374.419C201.401 376.233 203.279 377.261 203.302 377.275C203.544 377.407 203.848 377.319 203.981 377.077C204.113 376.835 204.025 376.531 203.782 376.398Z" fill="#132529"/>
<path fill-rule="evenodd" clip-rule="evenodd" d="M332.356 378.415C332.086 381.106 331.136 383.686 328.416 385.286C326.606 386.356 324.026 386.995 320.336 386.955C311.116 386.835 293.786 380.245 293.786 380.245L277.556 371.276L285.996 357.915L288.306 354.255L294.276 355.596C294.276 355.596 299.216 358.396 304.186 360.625C309.155 362.856 321.216 363.326 325.466 366.766C329.716 370.196 332.816 373.936 332.356 378.415Z" fill="#B6B6B6"/>
<path fill-rule="evenodd" clip-rule="evenodd" d="M332.356 378.415C332.086 381.106 331.136 383.686 328.416 385.286C328.926 383.196 329.346 380.306 327.956 377.186C326.155 373.116 320.246 369.526 312.485 368.925C304.735 368.326 298.786 364.696 295.676 363.076C293.246 361.816 288.126 359.066 285.996 357.915L288.306 354.255L294.276 355.596C294.276 355.596 299.216 358.396 304.186 360.625C309.155 362.856 321.216 363.326 325.466 366.766C329.716 370.196 332.816 373.936 332.356 378.415Z" fill="#FFFFFE"/>
<path fill-rule="evenodd" clip-rule="evenodd" d="M280.904 374.224C292.511 380.873 305.782 385.662 319.08 387.263C319.97 387.37 320.909 387.451 321.85 387.451C322.961 387.451 324.076 387.339 325.114 387.014C326.151 386.689 327.114 386.143 327.878 385.285C328.942 384.09 329.395 382.501 329.396 380.952C329.396 380.725 329.386 380.498 329.366 380.273C329.176 378.06 328.151 376.092 326.694 374.477C325.236 372.861 323.343 371.587 321.363 370.735C317.422 369.046 313.146 368.655 309.11 367.746C305.089 366.845 301.186 365.417 297.533 363.511C294.628 362 291.754 360.106 288.396 359.39C287.654 359.233 286.884 359.153 286.112 359.153C284.73 359.153 283.341 359.41 282.103 359.967C280.867 360.523 279.78 361.387 279.046 362.587C278.902 362.823 278.976 363.13 279.212 363.275C279.447 363.419 279.755 363.345 279.899 363.109C280.515 362.103 281.428 361.369 282.514 360.879C283.599 360.39 284.854 360.152 286.112 360.153C286.814 360.152 287.516 360.226 288.189 360.368C291.302 361.024 294.109 362.848 297.071 364.398C300.801 366.344 304.785 367.802 308.891 368.722C313.014 369.643 317.224 370.041 320.968 371.654C322.829 372.453 324.609 373.657 325.952 375.147C327.296 376.639 328.202 378.406 328.37 380.359C328.387 380.555 328.396 380.754 328.396 380.952C328.396 382.31 327.992 383.659 327.132 384.62C326.505 385.322 325.719 385.775 324.815 386.06C323.912 386.344 322.894 386.452 321.85 386.451C320.966 386.451 320.065 386.375 319.2 386.271C306.058 384.689 292.902 379.946 281.401 373.357C281.161 373.219 280.856 373.302 280.719 373.542C280.581 373.781 280.664 374.087 280.904 374.224Z" fill="#132529"/>
<path fill-rule="evenodd" clip-rule="evenodd" d="M326.65 386.528C329.754 384.934 332.32 382.012 332.853 378.489C332.92 378.04 332.953 377.59 332.953 377.142C332.946 373.447 330.773 369.962 327.863 367.728C324.608 365.235 320.595 364.092 316.684 363.276C312.773 362.466 308.825 361.921 305.201 360.504C302.816 359.574 300.408 358.235 297.955 357.116C295.503 356 292.995 355.096 290.389 355.095C289.499 355.095 288.599 355.201 287.693 355.442C287.426 355.513 287.267 355.787 287.338 356.053C287.409 356.32 287.683 356.479 287.95 356.408C288.768 356.191 289.579 356.095 290.389 356.095C292.757 356.093 295.136 356.929 297.541 358.026C299.945 359.121 302.365 360.469 304.837 361.436C308.611 362.907 312.616 363.451 316.48 364.256C320.345 365.058 324.206 366.181 327.255 368.521C329.967 370.596 331.96 373.856 331.953 377.142C331.953 377.541 331.924 377.942 331.864 378.341C331.403 381.459 329.065 384.168 326.194 385.638C325.948 385.764 325.851 386.066 325.977 386.312C326.103 386.557 326.404 386.654 326.65 386.528Z" fill="#132529"/>
<path fill-rule="evenodd" clip-rule="evenodd" d="M294.316 297.715C293.366 298.205 297.046 288.005 295.296 285.696C293.546 283.375 288.306 283.606 288.306 283.606L288.756 280.816C288.816 280.505 291.866 264.866 291.866 264.866L292.896 263.636C292.896 263.636 303.576 281.946 305.485 288.396C305.485 288.396 293.846 297.715 294.316 297.715ZM225.276 284.236C223.256 285.665 224.336 291.215 224.336 291.215L220.896 288.186L229.525 266.965L233.206 283.255C233.206 283.255 227.296 282.816 225.276 284.236ZM299.466 233.356L272.006 222.906L271.666 222.776C271.666 222.776 271.766 222.045 271.846 220.986C272.016 218.795 272.106 215.226 271.076 214.016C269.546 212.226 265.206 213.726 260.976 211.785C256.746 209.846 248.916 213.316 248.916 213.316C248.916 213.316 243.266 212.276 240.776 216.356C239.506 219.646 239.945 224.545 239.945 224.545C239.945 224.545 239.766 224.616 239.426 224.736C236.155 225.955 218.356 232.656 214.586 235.346C210.426 238.295 205.826 268.545 204.346 277.425C202.866 286.316 200.236 294.316 201.576 297.375C202.906 300.425 222.036 315.156 233.036 318.955C244.036 322.766 283.066 321.646 283.066 321.646C283.066 321.646 283.706 321.476 284.836 321.116C291.436 318.995 314.856 310.266 327.276 289.675C327.276 289.675 315.246 250.215 299.466 233.356Z" fill="#D22630"/>
<path fill-rule="evenodd" clip-rule="evenodd" d="M247.619 167.17L233.446 182.218C233.446 182.218 231.492 183.945 232.269 188.31C233.046 192.675 234.855 196.425 236.221 196.715C237.587 197.006 239.503 197.009 239.503 197.009C239.503 197.009 242.54 203.591 244.691 206.178C244.691 206.178 245.441 216.337 245.041 219.158C245.041 219.158 250.133 223.606 254.929 224.171C259.725 224.737 267.135 217.388 267.135 217.388L268.972 208.393C268.972 208.393 273.319 201.793 273.616 200.036C273.912 198.279 275.9 198.73 276.877 197.863C277.854 196.996 280.114 193.12 280.487 189.457C280.861 185.795 280.887 181.588 276.632 182.823C272.945 181.833 275.253 174.039 275.253 174.039L268.775 168.323L247.619 167.17Z" fill="#FFFFFE"/>
<path fill-rule="evenodd" clip-rule="evenodd" d="M271.79 221.647C271.809 221.446 271.828 221.224 271.846 220.986C272.016 218.795 272.106 215.226 271.076 214.016C272.221 215.356 271.982 219.598 271.79 221.647Z" fill="#828D8C"/>
<path fill-rule="evenodd" clip-rule="evenodd" d="M258.746 237.356L255.666 227.886L253.976 237.356C250.576 235.875 240.206 226.886 240.206 226.886C240.206 226.886 239.856 226.045 239.426 224.736C239.766 224.616 239.945 224.545 239.945 224.545C239.945 224.545 239.872 223.725 239.872 222.53C239.872 220.805 240.025 218.3 240.776 216.356C240.784 216.342 240.792 216.329 240.801 216.315C240.803 216.312 240.805 216.308 240.807 216.305C240.812 216.296 240.818 216.287 240.824 216.278C241.908 214.558 243.562 213.77 245.092 213.431C245.177 215.766 245.2 218.039 245.041 219.158C245.041 219.158 250.133 223.606 254.929 224.171C255.106 224.192 255.288 224.202 255.472 224.202C260.264 224.202 267.135 217.388 267.135 217.388L268.028 213.013C269.376 213.106 270.456 213.291 271.076 214.016C272.106 215.226 272.016 218.795 271.846 220.986L271.276 224.545L268.921 227.747C265.095 232.121 258.746 237.356 258.746 237.356Z" fill="#D5D5D5"/>
<path fill-rule="evenodd" clip-rule="evenodd" d="M255.472 224.202C255.288 224.202 255.106 224.192 254.929 224.171C250.133 223.606 245.041 219.158 245.041 219.158C245.2 218.039 245.177 215.766 245.092 213.431C245.905 213.251 246.683 213.197 247.322 213.197C248.272 213.197 248.916 213.316 248.916 213.316C248.916 213.316 253.699 211.196 257.808 211.196C258.956 211.196 260.052 211.362 260.976 211.785C263.493 212.94 266.049 212.877 268.028 213.013L267.135 217.388C267.135 217.388 260.264 224.202 255.472 224.202Z" fill="#FFFFFE"/>
<path fill-rule="evenodd" clip-rule="evenodd" d="M284.836 321.116L278.576 314.616L280.646 290.036L285.708 246.75C286.239 242.204 283.922 237.811 279.887 235.651C274.082 232.543 267.216 230.066 267.216 230.066L268.921 227.747C269.942 226.58 270.783 225.474 271.276 224.545C271.546 224.035 271.786 223.486 272.006 222.906L299.466 233.356C315.246 250.215 327.276 289.675 327.276 289.675C314.856 310.266 291.436 318.995 284.836 321.116ZM294.156 297.474C294.156 297.641 294.187 297.732 294.256 297.732C294.274 297.732 294.293 297.727 294.316 297.715C294.306 297.715 294.302 297.712 294.302 297.705C294.296 297.355 305.485 288.396 305.485 288.396C303.576 281.946 292.896 263.636 292.896 263.636L291.866 264.866C291.866 264.866 291.463 266.935 290.946 269.584C290.882 269.91 290.817 270.244 290.751 270.584C289.873 275.085 288.791 280.632 288.756 280.816L288.306 283.606C288.306 283.606 288.45 283.599 288.698 283.599C289.947 283.599 293.836 283.76 295.296 285.696C295.642 286.152 295.775 286.915 295.775 287.843C295.774 291.062 294.157 296.261 294.156 297.474Z" fill="#9A1B22"/>
<path fill-rule="evenodd" clip-rule="evenodd" d="M271.666 222.776C271.667 222.771 271.726 222.331 271.79 221.647C271.726 222.333 271.667 222.771 271.666 222.776Z" fill="#41B284"/>
<path fill-rule="evenodd" clip-rule="evenodd" d="M268.921 227.747L271.276 224.545C270.783 225.474 269.942 226.58 268.921 227.747Z" fill="#84B99D"/>
<path fill-rule="evenodd" clip-rule="evenodd" d="M271.276 224.545L271.846 220.986C271.828 221.224 271.809 221.446 271.79 221.647C271.726 222.331 271.667 222.771 271.666 222.776L272.006 222.906C271.786 223.486 271.546 224.035 271.276 224.545Z" fill="#84B99D"/>
<path fill-rule="evenodd" clip-rule="evenodd" d="M227.996 303.665C227.996 303.665 215.676 293.835 210.596 293.835C205.526 293.835 206.426 292.205 210.596 285.696C214.766 279.175 219.271 257.238 219.271 257.238L217.89 238.874C221.802 243.673 227.051 259.397 229.472 267.098L228.46 269.584L228.054 270.584L220.896 288.186L224.336 291.215C224.336 291.215 224.048 289.734 224.048 288.105C224.047 286.581 224.299 284.927 225.276 284.236C226.524 283.359 229.255 283.191 231.162 283.191C232.342 283.191 233.206 283.255 233.206 283.255L229.774 268.066C230.419 270.138 230.796 271.425 230.796 271.425L235.066 285.696L227.046 295.465L227.996 303.665Z" fill="#9A1B22"/>
<path fill-rule="evenodd" clip-rule="evenodd" d="M229.774 268.066C229.679 267.76 229.578 267.436 229.472 267.098L229.525 266.965L229.774 268.066Z" fill="#BEBFBB"/>
<path fill-rule="evenodd" clip-rule="evenodd" d="M244.193 206.229C244.193 206.23 244.215 206.438 244.247 206.808C244.345 207.917 244.541 210.454 244.541 212.919C244.542 214.56 244.451 216.177 244.203 217.279C244.142 217.548 244.312 217.816 244.581 217.876C244.851 217.936 245.118 217.767 245.178 217.497C245.455 216.255 245.54 214.599 245.541 212.919C245.54 209.564 245.189 206.136 245.188 206.127C245.16 205.852 244.914 205.653 244.64 205.681C244.365 205.709 244.165 205.954 244.193 206.229Z" fill="#132529"/>
<path fill-rule="evenodd" clip-rule="evenodd" d="M268.419 216.351V216.267C268.418 215.701 268.458 212.33 269.261 209.128C269.328 208.86 269.165 208.588 268.897 208.521C268.629 208.454 268.357 208.617 268.29 208.885C267.454 212.234 267.42 215.656 267.419 216.267V216.363C267.423 216.639 267.649 216.86 267.925 216.857C268.201 216.853 268.422 216.627 268.419 216.351Z" fill="#132529"/>
<path fill-rule="evenodd" clip-rule="evenodd" d="M269.589 173.218C269.59 173.219 269.653 173.299 269.771 173.455C270.185 174.003 271.23 175.451 272.164 177.217C273.1 178.981 273.911 181.072 273.906 182.838C273.906 182.942 273.903 183.044 273.897 183.146C273.692 186.956 273.396 191.403 273.395 195.87C273.395 196.575 273.403 197.281 273.419 197.986L273.42 198.084C273.424 199.247 272.937 200.833 272.112 202.529C270.878 205.076 268.904 207.886 266.858 210.125C265.835 211.245 264.793 212.222 263.825 212.955C262.859 213.688 261.96 214.169 261.277 214.317C259.55 214.701 257.937 214.963 256.472 214.962C254.322 214.957 252.525 214.422 250.996 212.9C248.296 210.202 245.555 206.395 241.974 201.499C240.828 199.939 240.126 197.653 239.733 195.324C239.337 192.995 239.24 190.626 239.241 188.886C239.241 188.074 239.262 187.399 239.282 186.928C239.303 186.457 239.324 186.196 239.324 186.195C239.345 185.92 239.139 185.68 238.864 185.658C238.589 185.637 238.348 185.842 238.327 186.118C238.326 186.128 238.241 187.228 238.241 188.886C238.241 190.663 238.338 193.08 238.747 195.491C239.159 197.903 239.872 200.313 241.167 202.09C244.748 206.981 247.499 210.815 250.289 213.607C252.022 215.347 254.161 215.968 256.472 215.962C258.055 215.962 259.733 215.684 261.494 215.293C262.714 215.015 264.062 214.13 265.474 212.896C267.584 211.041 269.798 208.376 271.503 205.665C273.202 202.947 274.409 200.216 274.42 198.084L274.419 197.962C274.403 197.267 274.395 196.568 274.395 195.87C274.395 191.446 274.69 187.018 274.896 183.2C274.902 183.08 274.906 182.959 274.906 182.838C274.898 180.486 273.75 177.96 272.627 175.985C271.501 174.014 270.382 172.609 270.372 172.596C270.2 172.38 269.885 172.344 269.669 172.516C269.453 172.688 269.417 173.002 269.589 173.218Z" fill="#132529"/>
<path fill-rule="evenodd" clip-rule="evenodd" d="M258.282 190.163C258.031 191.583 257.904 193.026 257.904 194.468C257.903 194.688 257.906 194.909 257.912 195.129C257.954 196.525 258.14 198.132 259.249 199.277C259.544 199.576 259.861 199.813 260.09 200.042C260.323 200.274 260.444 200.465 260.47 200.666V200.667L260.476 200.749C260.476 200.908 260.412 201.086 260.278 201.27C260.146 201.453 259.949 201.63 259.74 201.763H259.741C259.263 202.077 258.599 202.296 258.003 202.804C257.795 202.985 257.773 203.301 257.954 203.509C258.135 203.717 258.451 203.74 258.659 203.558C259.048 203.211 259.657 202.994 260.279 202.605H260.28C260.577 202.413 260.863 202.166 261.087 201.859C261.31 201.553 261.475 201.176 261.476 200.749L261.461 200.533L261.462 200.534C261.39 200.007 261.089 199.624 260.794 199.332C260.496 199.038 260.181 198.802 259.962 198.577C259.161 197.775 258.942 196.435 258.912 195.102C258.906 194.891 258.903 194.679 258.903 194.468C258.903 193.085 259.025 191.7 259.267 190.338C259.315 190.066 259.134 189.806 258.862 189.758C258.59 189.71 258.33 189.891 258.282 190.163Z" fill="#132529"/>
<path fill-rule="evenodd" clip-rule="evenodd" d="M263.652 189.644L263.479 189.471L263.65 189.646L263.652 189.644L263.479 189.471L263.65 189.646C263.667 189.628 264.098 189.212 264.753 188.821C265.408 188.426 266.273 188.073 267.146 188.077C267.652 188.078 268.168 188.184 268.72 188.475C269.271 188.767 269.866 189.255 270.479 190.062C270.813 190.502 271.44 190.588 271.88 190.254C272.32 189.92 272.406 189.293 272.072 188.853C271.318 187.857 270.501 187.155 269.656 186.708C268.812 186.259 267.946 186.076 267.146 186.077C265.706 186.081 264.498 186.634 263.644 187.155C262.789 187.68 262.275 188.193 262.237 188.23C261.847 188.62 261.847 189.253 262.237 189.644C262.628 190.035 263.261 190.035 263.652 189.644Z" fill="#132529"/>
<path fill-rule="evenodd" clip-rule="evenodd" d="M254.145 188.358C254.097 188.305 253.713 187.882 253.006 187.454C252.301 187.027 251.255 186.596 249.941 186.596C248.627 186.593 247.083 187.037 245.443 188.208C244.993 188.529 244.888 189.153 245.208 189.603C245.528 190.053 246.152 190.158 246.602 189.838C247.971 188.869 249.069 188.599 249.941 188.596C250.812 188.597 251.495 188.879 251.973 189.166C252.21 189.309 252.392 189.452 252.508 189.554L252.633 189.67L252.656 189.693L252.658 189.695L253.095 189.294L252.652 189.689L252.658 189.695L253.095 189.294L252.652 189.689C253.02 190.101 253.652 190.137 254.064 189.77C254.476 189.402 254.512 188.77 254.145 188.358Z" fill="#132529"/>
<path fill-rule="evenodd" clip-rule="evenodd" d="M245.041 210.407C245.041 210.407 247.805 218.025 253.978 220.186C260.151 222.346 268.347 211.133 268.347 211.133L267.918 209.674C267.918 209.674 262.548 216.653 256.573 215.462C250.599 214.273 244.691 206.178 244.691 206.178L245.041 210.407Z" fill="#3B3E40"/>
<path fill-rule="evenodd" clip-rule="evenodd" d="M239.337 196.244L239.31 196.252C239.168 196.3 238.462 196.511 237.693 196.509C237.207 196.51 236.705 196.426 236.294 196.203C235.884 195.976 235.542 195.63 235.318 194.986C234.963 193.948 234.324 192.36 233.774 190.624C233.222 188.891 232.767 187.011 232.769 185.468C232.768 184.831 232.845 184.255 233.01 183.772C233.175 183.288 233.42 182.899 233.772 182.597C234.227 182.211 234.602 182.09 234.944 182.088C235.339 182.087 235.746 182.268 236.151 182.594C236.757 183.08 237.307 183.871 237.685 184.537C237.875 184.869 238.025 185.17 238.126 185.386C238.176 185.494 238.215 185.581 238.24 185.64L238.277 185.726C238.38 185.982 238.672 186.106 238.928 186.003C239.184 185.899 239.307 185.608 239.204 185.352C239.195 185.333 238.788 184.321 238.08 183.282C237.725 182.762 237.294 182.233 236.779 181.816C236.266 181.402 235.649 181.089 234.944 181.088C234.337 181.086 233.707 181.332 233.121 181.838C232.615 182.271 232.272 182.831 232.063 183.451C231.852 184.071 231.769 184.753 231.769 185.468C231.771 187.199 232.257 189.145 232.82 190.926C233.384 192.703 234.034 194.317 234.372 195.309C234.66 196.169 235.203 196.754 235.819 197.082C236.434 197.413 237.099 197.508 237.693 197.509C238.769 197.507 239.639 197.196 239.67 197.187C239.93 197.095 240.066 196.809 239.975 196.549C239.883 196.288 239.597 196.152 239.337 196.244Z" fill="#132529"/>
<path fill-rule="evenodd" clip-rule="evenodd" d="M273.814 198.769C273.837 198.773 274.226 198.851 274.792 198.851C275.381 198.85 276.166 198.769 276.928 198.402C277.689 198.039 278.416 197.355 278.784 196.261C279.122 195.27 279.771 193.655 280.335 191.878C280.898 190.097 281.385 188.151 281.387 186.419C281.387 185.704 281.303 185.023 281.093 184.402C280.883 183.783 280.54 183.222 280.035 182.79C279.449 182.284 278.819 182.038 278.212 182.04C277.507 182.041 276.889 182.354 276.376 182.768C275.605 183.394 275.018 184.269 274.602 184.993C274.189 185.716 273.957 186.289 273.952 186.303C273.848 186.559 273.972 186.851 274.228 186.954C274.484 187.058 274.775 186.934 274.879 186.678L274.894 186.641C274.977 186.444 275.397 185.492 276.024 184.622C276.336 184.187 276.701 183.775 277.08 183.487C277.462 183.197 277.841 183.039 278.212 183.04C278.554 183.042 278.929 183.163 279.384 183.549C279.735 183.851 279.981 184.24 280.146 184.724C280.31 185.207 280.387 185.783 280.387 186.419C280.389 187.963 279.933 189.842 279.382 191.576C278.831 193.312 278.192 194.901 277.837 195.938C277.545 196.781 277.054 197.224 276.492 197.502C275.93 197.776 275.286 197.852 274.792 197.851C274.555 197.851 274.354 197.835 274.215 197.818L274.057 197.796L274.018 197.79L274.011 197.788C273.74 197.734 273.477 197.909 273.422 198.18C273.368 198.451 273.543 198.714 273.814 198.769Z" fill="#132529"/>
<path fill-rule="evenodd" clip-rule="evenodd" d="M238.74 192.896C239.76 192.85 241.433 191.856 241.97 190.988C242.506 190.12 242.734 189.1 242.908 188.095C243.241 186.169 243.413 184.216 243.419 182.262C243.422 181.498 243.402 180.719 243.625 179.989C243.857 179.228 244.339 178.57 244.855 177.966C246.139 176.461 247.686 175.189 248.906 173.632C250.127 172.075 251.025 170.105 250.694 168.154C250.694 168.154 259.039 175.782 271.068 173.423C277.544 172.153 283.759 166.47 283.003 159.327C282.734 156.785 280.865 154.958 278.44 154.354C275.238 153.558 272.362 155.264 269.462 156.359C264.175 158.352 259.001 154.929 253.659 154.354C249.09 153.863 243.483 154.429 241.104 158.972C241.104 158.972 232.898 159.935 229.303 166.676C225.708 173.415 232.541 182.746 232.541 182.746C232.541 182.746 235.291 179.417 238.825 186.157L238.74 192.896Z" fill="#3B3E40"/>
<path fill-rule="evenodd" clip-rule="evenodd" d="M270.497 171.183C270.497 171.183 268.375 182.242 273.912 187.597C273.912 187.597 275.124 184.272 276.353 183.461C276.353 183.461 279.435 177.619 275.383 171.183C271.331 164.748 270.497 171.183 270.497 171.183Z" fill="#132529"/>
<path fill-rule="evenodd" clip-rule="evenodd" d="M237.808 176.242C237.797 176.242 237.785 176.242 237.774 176.241C237.498 176.222 237.29 175.984 237.309 175.708C237.532 172.463 239.295 169.456 241.765 167.254C244.238 165.053 247.433 163.638 250.608 163.635C250.911 163.635 251.214 163.648 251.516 163.675C256.961 164.163 262.201 165.984 267.379 165.984C267.388 165.984 267.398 165.984 267.407 165.984C269.651 165.983 271.881 165.649 274.134 164.732C276.944 163.589 279.397 161.32 280.158 158.469C280.218 158.246 280.42 158.099 280.641 158.099C280.683 158.099 280.727 158.104 280.771 158.116C281.037 158.188 281.195 158.462 281.124 158.729C280.245 161.973 277.545 164.419 274.511 165.658C272.123 166.631 269.753 166.984 267.411 166.984C267.41 166.984 267.408 166.984 267.407 166.984C261.99 166.977 256.718 165.132 251.428 164.671C251.156 164.647 250.883 164.635 250.608 164.635C250.605 164.635 250.602 164.635 250.599 164.635C247.73 164.635 244.739 165.942 242.43 168.001C240.116 170.061 238.502 172.858 238.307 175.776C238.289 176.04 238.069 176.242 237.808 176.242Z" fill="#415051"/>
<path fill-rule="evenodd" clip-rule="evenodd" d="M233.034 174.539C233.03 174.539 233.026 174.539 233.022 174.539C232.746 174.532 232.527 174.304 232.533 174.027C232.661 168.732 236.126 163.712 241.034 161.717C241.096 161.692 241.159 161.68 241.222 161.68C241.419 161.68 241.606 161.798 241.685 161.992C241.789 162.248 241.666 162.54 241.41 162.643C236.89 164.467 233.638 169.178 233.533 174.05C233.527 174.323 233.304 174.539 233.034 174.539Z" fill="#415051"/>
<path fill-rule="evenodd" clip-rule="evenodd" d="M242.548 216.693C242.577 216.718 247.666 222.346 254.712 225.015C254.814 225.053 254.923 225.058 255.028 225.027C255.048 225.021 257.375 224.346 260.303 222.856C263.229 221.365 266.763 219.063 269.179 215.757C269.342 215.534 269.293 215.221 269.07 215.058C268.847 214.896 268.534 214.944 268.372 215.167C266.105 218.277 262.695 220.518 259.849 221.965C258.426 222.689 257.146 223.217 256.225 223.562C255.764 223.734 255.392 223.861 255.138 223.945C255.01 223.987 254.912 224.018 254.846 224.038L254.75 224.067L254.889 224.547L255.066 224.079C251.685 222.803 248.73 220.784 246.628 219.085C245.577 218.235 244.739 217.466 244.165 216.91C243.878 216.633 243.657 216.409 243.509 216.255L243.342 216.079L243.288 216.021C243.103 215.816 242.787 215.801 242.582 215.987C242.378 216.172 242.362 216.488 242.548 216.693Z" fill="#132529"/>
<path fill-rule="evenodd" clip-rule="evenodd" d="M257.061 192.896H256.561C256.56 195.008 255.706 196.916 254.322 198.3C252.937 199.685 251.029 200.539 248.917 200.539C246.805 200.539 244.897 199.685 243.512 198.3C242.128 196.916 241.274 195.008 241.274 192.896C241.274 190.784 242.128 188.876 243.512 187.491C244.897 186.107 246.805 185.253 248.917 185.253C251.029 185.253 252.937 186.107 254.322 187.491C255.706 188.876 256.56 190.784 256.561 192.896H257.561C257.56 188.122 253.69 184.253 248.917 184.253C244.143 184.253 240.274 188.122 240.274 192.896C240.274 197.669 244.143 201.539 248.917 201.539C253.691 201.539 257.56 197.669 257.561 192.896H257.061Z" fill="#132529"/>
<path fill-rule="evenodd" clip-rule="evenodd" d="M275.253 192.896H274.753C274.753 195.008 273.898 196.916 272.515 198.3C271.13 199.685 269.222 200.539 267.11 200.539C264.998 200.539 263.09 199.685 261.706 198.3C260.322 196.916 259.467 195.008 259.467 192.896C259.467 190.784 260.322 188.876 261.705 187.491C263.09 186.107 264.998 185.253 267.11 185.253C269.223 185.253 271.13 186.107 272.515 187.491C273.898 188.876 274.753 190.784 274.753 192.896H275.753C275.753 188.122 271.884 184.253 267.11 184.253C262.336 184.253 258.467 188.122 258.467 192.896C258.467 197.669 262.336 201.539 267.11 201.539C271.884 201.539 275.753 197.669 275.753 192.896H275.253Z" fill="#132529"/>
<path fill-rule="evenodd" clip-rule="evenodd" d="M244.591 212.83C244.556 212.837 243.891 212.974 243.03 213.45C242.172 213.924 241.114 214.745 240.339 216.11C239.957 216.79 239.75 217.688 239.617 218.7C239.487 219.71 239.442 220.829 239.442 221.911C239.442 224.524 239.704 226.925 239.705 226.935C239.718 227.05 239.768 227.155 239.851 227.237C239.872 227.251 247.301 234.627 253.758 237.8C253.899 237.869 254.064 237.868 254.204 237.797C254.344 237.726 254.442 237.593 254.47 237.438L255.952 229.102L258.265 237.484C258.308 237.64 258.426 237.767 258.579 237.822C258.732 237.876 258.904 237.853 259.036 237.759C259.045 237.752 261.51 236.01 264.324 233.523C267.138 231.03 270.303 227.82 271.729 224.757L271.771 224.611C271.772 224.6 272.169 221.553 272.169 218.816C272.165 217.44 272.082 216.162 271.741 215.279C271.293 214.133 270.533 213.488 269.854 213.168C269.174 212.845 268.584 212.82 268.389 212.819L268.321 212.82C268.045 212.834 267.833 213.069 267.847 213.345C267.862 213.621 268.097 213.833 268.372 213.819L268.369 213.751L268.371 213.819H268.372L268.369 213.751L268.371 213.819H268.389C268.488 213.818 268.936 213.836 269.423 214.071C269.911 214.308 270.447 214.735 270.81 215.646C271.06 216.26 271.174 217.499 271.169 218.816C271.169 220.138 271.072 221.559 270.974 222.646C270.926 223.19 270.877 223.65 270.84 223.974C270.804 224.298 270.78 224.482 270.78 224.483L271.276 224.547L270.822 224.337C269.531 227.14 266.432 230.331 263.661 232.774C262.276 233.998 260.973 235.042 260.017 235.779C259.54 236.148 259.149 236.439 258.878 236.639C258.607 236.838 258.459 236.942 258.458 236.943L258.747 237.351L259.229 237.218L256.329 226.707C256.267 226.482 256.057 226.33 255.823 226.341C255.59 226.352 255.395 226.522 255.355 226.753L253.485 237.263L253.978 237.351L254.198 236.902C251.097 235.384 247.67 232.785 245.036 230.569C243.718 229.461 242.595 228.448 241.804 227.714C241.408 227.347 241.095 227.049 240.881 226.843C240.667 226.638 240.554 226.526 240.554 226.526L240.202 226.881L240.699 226.827C240.699 226.827 240.684 226.683 240.659 226.422C240.587 225.638 240.442 223.822 240.442 221.911C240.442 220.857 240.486 219.773 240.609 218.828C240.728 217.883 240.937 217.073 241.208 216.604C241.874 215.432 242.775 214.735 243.515 214.325C243.884 214.12 244.211 213.989 244.442 213.911C244.558 213.872 244.649 213.845 244.709 213.83L244.775 213.813L244.79 213.81C245.06 213.755 245.235 213.491 245.181 213.221C245.126 212.95 244.862 212.775 244.591 212.83Z" fill="#132529"/>
<path fill-rule="evenodd" clip-rule="evenodd" d="M233.528 283.535C233.527 283.529 232.8 278.651 231.587 272.771C230.371 266.886 228.684 260.02 226.707 255.953C226.587 255.705 226.287 255.602 226.039 255.723C225.791 255.844 225.688 256.143 225.808 256.391C227.703 260.275 229.404 267.127 230.608 272.973C231.211 275.898 231.694 278.577 232.026 280.524C232.192 281.497 232.32 282.288 232.407 282.834C232.494 283.381 232.539 283.682 232.539 283.682C232.579 283.956 232.834 284.144 233.107 284.103C233.38 284.063 233.569 283.808 233.528 283.535Z" fill="#132529"/>
<path fill-rule="evenodd" clip-rule="evenodd" d="M217.483 239.165C217.483 239.166 217.709 239.481 218.088 240.038C219.224 241.706 221.722 245.516 223.458 249.162C223.577 249.411 223.875 249.517 224.124 249.398C224.374 249.279 224.479 248.981 224.361 248.732C221.99 243.757 218.305 238.597 218.297 238.584C218.136 238.359 217.824 238.307 217.599 238.467C217.375 238.628 217.322 238.94 217.483 239.165Z" fill="#132529"/>
<path fill-rule="evenodd" clip-rule="evenodd" d="M294.8 253.55C295.818 249.683 296.905 246.293 297.965 244.13C298.086 243.882 297.984 243.583 297.736 243.461C297.488 243.34 297.188 243.443 297.067 243.691C295.951 245.973 294.862 249.395 293.833 253.295C293.763 253.562 293.922 253.835 294.189 253.906C294.456 253.976 294.73 253.817 294.8 253.55Z" fill="#132529"/>
<path fill-rule="evenodd" clip-rule="evenodd" d="M288.799 283.686C288.799 283.684 288.93 282.854 289.165 281.431C289.871 277.163 291.519 267.589 293.388 259.35C293.449 259.081 293.28 258.813 293.011 258.752C292.742 258.691 292.474 258.86 292.413 259.129C289.911 270.163 287.812 283.526 287.811 283.531C287.768 283.804 287.954 284.06 288.227 284.103C288.5 284.146 288.756 283.959 288.799 283.686Z" fill="#132529"/>
<path fill-rule="evenodd" clip-rule="evenodd" d="M292.263 265.161C294.193 262.583 297.002 260.663 300.103 259.8C300.369 259.726 300.525 259.451 300.451 259.185C300.376 258.919 300.101 258.763 299.835 258.837C296.516 259.762 293.53 261.804 291.462 264.562C291.297 264.783 291.342 265.096 291.563 265.262C291.784 265.427 292.097 265.382 292.263 265.161Z" fill="#132529"/>
<path fill-rule="evenodd" clip-rule="evenodd" d="M271.484 223.239C271.487 223.24 288.382 229.989 299.305 233.828L299.471 233.357L299.128 233.721L299.16 233.752C299.892 234.466 312.88 247.555 326.797 289.833L327.272 289.677L326.842 289.422C326.842 289.422 326.794 289.502 326.694 289.663C325.187 292.083 312.174 311.885 288.879 318.478C288.614 318.554 288.459 318.83 288.535 319.096C288.61 319.361 288.886 319.516 289.152 319.44C314.444 312.255 327.668 289.974 327.701 289.933C327.775 289.808 327.792 289.658 327.747 289.521C313.342 245.759 299.887 233.062 299.813 232.993L299.637 232.885C294.194 230.972 287.246 228.328 281.661 226.162C278.869 225.079 276.417 224.116 274.663 223.424C272.909 222.732 271.857 222.312 271.855 222.31C271.598 222.208 271.307 222.333 271.205 222.589C271.102 222.846 271.227 223.137 271.484 223.239Z" fill="#132529"/>
<path fill-rule="evenodd" clip-rule="evenodd" d="M293.691 298.893L305.804 288.779L305.484 288.395L305.786 288.793L305.819 288.769C306.183 288.497 309.514 286.183 313.612 286.191C315.109 286.192 316.708 286.492 318.333 287.304C318.58 287.427 318.88 287.327 319.004 287.08C319.127 286.833 319.027 286.533 318.78 286.41C317.008 285.523 315.243 285.191 313.612 285.191C308.842 285.201 305.224 287.972 305.181 287.997L305.163 288.011L293.05 298.125C292.838 298.302 292.809 298.618 292.986 298.83C293.163 299.042 293.479 299.07 293.691 298.893Z" fill="#132529"/>
<path fill-rule="evenodd" clip-rule="evenodd" d="M292.487 263.92C292.487 263.921 292.641 264.147 292.919 264.568C293.89 266.041 296.36 269.871 298.863 274.415C301.366 278.957 303.9 284.224 304.999 288.519C305.068 288.787 305.34 288.948 305.608 288.879C305.875 288.811 306.036 288.538 305.968 288.271C304.661 283.183 301.5 276.98 298.665 272.02C295.83 267.063 293.319 263.365 293.314 263.358C293.159 263.13 292.848 263.07 292.62 263.225C292.391 263.38 292.332 263.691 292.487 263.92Z" fill="#132529"/>
<path fill-rule="evenodd" clip-rule="evenodd" d="M224.789 291.413L221.245 288.033C221.172 287.964 221.084 287.92 220.986 287.902C220.962 287.898 220.41 287.803 219.473 287.803C217.44 287.803 213.579 288.252 209.4 291.055C209.171 291.209 209.11 291.519 209.264 291.749C209.417 291.978 209.728 292.039 209.957 291.885C213.937 289.217 217.583 288.804 219.473 288.803C219.908 288.803 220.249 288.825 220.478 288.847C220.593 288.858 220.68 288.868 220.736 288.876L220.798 288.885L220.813 288.887L220.9 288.395L220.555 288.757L224.099 292.137C224.299 292.327 224.616 292.32 224.806 292.12C224.997 291.92 224.989 291.603 224.789 291.413Z" fill="#132529"/>
<path fill-rule="evenodd" clip-rule="evenodd" d="M221.378 288.541C221.379 288.538 221.651 287.642 222.131 286.174C223.566 281.772 226.863 272.239 230.078 266.717C230.217 266.478 230.136 266.172 229.897 266.033C229.658 265.894 229.352 265.975 229.213 266.214C227.012 270.002 224.824 275.497 223.174 280.06C221.526 284.622 220.423 288.244 220.421 288.249C220.341 288.513 220.49 288.793 220.754 288.873C221.018 288.954 221.297 288.805 221.378 288.541Z" fill="#132529"/>
<path fill-rule="evenodd" clip-rule="evenodd" d="M239.766 224.079C239.763 224.08 233.684 226.361 227.302 228.976C224.11 230.284 220.843 231.675 218.217 232.91C216.903 233.527 215.749 234.105 214.839 234.619C213.926 235.138 213.269 235.566 212.882 235.989C212.641 236.268 212.477 236.641 212.265 237.187C211.502 239.207 210.454 243.488 209.283 248.92C207.53 257.06 205.522 267.737 203.931 276.897C203.135 281.477 202.443 285.677 201.94 288.991C201.436 292.311 201.121 294.723 201.076 295.803L201.074 295.912C201.077 296.721 201.419 297.551 201.977 298.427C202.959 299.957 204.645 301.655 206.758 303.443C213.093 308.796 223.282 314.909 229.412 318.15C229.656 318.279 229.959 318.186 230.088 317.942C230.217 317.698 230.123 317.395 229.879 317.266C225.25 314.82 218.242 310.692 212.413 306.533C209.499 304.455 206.878 302.366 205.006 300.493C204.07 299.557 203.322 298.674 202.82 297.888C202.314 297.103 202.07 296.418 202.074 295.912L202.075 295.844C202.13 294.453 202.74 290.149 203.659 284.518C205.037 276.059 207.112 264.531 209.064 254.876C210.04 250.049 210.986 245.689 211.797 242.42C212.202 240.786 212.574 239.424 212.896 238.42C213.057 237.919 213.206 237.507 213.336 237.201C213.463 236.898 213.587 236.694 213.626 236.657C213.835 236.416 214.459 235.977 215.331 235.489C218.402 233.755 224.62 231.124 230.043 228.943C232.756 227.851 235.276 226.869 237.116 226.16C238.957 225.451 240.114 225.016 240.117 225.015C240.376 224.918 240.507 224.63 240.41 224.372C240.313 224.113 240.024 223.982 239.766 224.079Z" fill="#132529"/>
<path fill-rule="evenodd" clip-rule="evenodd" d="M327.934 216.357H300.238C296.968 216.357 294.317 213.706 294.317 210.436V194.189C294.317 190.918 296.968 188.267 300.238 188.267H327.934C331.204 188.267 333.855 190.918 333.855 194.189V210.436C333.855 213.706 331.204 216.357 327.934 216.357Z" fill="#FFFFFE"/>
<path fill-rule="evenodd" clip-rule="evenodd" d="M327.934 216.357V215.857H300.238C298.74 215.857 297.387 215.251 296.405 214.269C295.423 213.287 294.817 211.935 294.817 210.436V194.189C294.817 192.69 295.423 191.338 296.405 190.355C297.387 189.373 298.74 188.768 300.238 188.767H327.934C329.432 188.768 330.785 189.373 331.767 190.355C332.749 191.338 333.354 192.69 333.355 194.189V210.436C333.354 211.935 332.749 213.287 331.767 214.269C330.785 215.251 329.433 215.857 327.934 215.857V216.857C331.48 216.857 334.354 213.983 334.355 210.436V194.189C334.354 190.642 331.481 187.768 327.934 187.767H300.238C296.692 187.768 293.817 190.642 293.817 194.189V210.436C293.817 213.983 296.692 216.856 300.238 216.857H327.934V216.357Z" fill="#132529"/>
<path fill-rule="evenodd" clip-rule="evenodd" d="M306.807 196.292L299.205 201.065C299.072 201.149 298.985 201.291 298.973 201.447C298.96 201.604 299.022 201.758 299.139 201.863L306.194 208.12C306.4 208.304 306.716 208.285 306.9 208.078C307.083 207.872 307.064 207.556 306.857 207.372L300.302 201.557L307.339 197.139C307.573 196.992 307.644 196.683 307.497 196.449C307.35 196.215 307.041 196.145 306.807 196.292Z" fill="#132529"/>
<path fill-rule="evenodd" clip-rule="evenodd" d="M321.252 208.581L328.084 202.759C328.204 202.657 328.269 202.504 328.259 202.347C328.249 202.19 328.165 202.046 328.034 201.96L320.147 196.789C319.916 196.638 319.606 196.702 319.455 196.933C319.304 197.164 319.368 197.474 319.599 197.626L326.928 202.431L320.604 207.82C320.393 207.999 320.368 208.315 320.547 208.525C320.726 208.735 321.042 208.76 321.252 208.581Z" fill="#132529"/>
<path fill-rule="evenodd" clip-rule="evenodd" d="M311.246 211.935L316.858 194.337C316.942 194.074 316.797 193.792 316.534 193.709C316.271 193.625 315.99 193.77 315.906 194.033L310.293 211.632C310.209 211.895 310.355 212.176 310.618 212.26C310.881 212.344 311.162 212.199 311.246 211.935Z" fill="#132529"/>
<path fill-rule="evenodd" clip-rule="evenodd" d="M286.241 327.193H230.927C230.211 327.193 229.63 326.613 229.63 325.896C229.63 325.18 230.211 324.599 230.927 324.599H286.241C286.958 324.599 287.538 325.18 287.538 325.896C287.538 326.613 286.958 327.193 286.241 327.193Z" fill="#132529"/>
<path fill-rule="evenodd" clip-rule="evenodd" d="M288.178 322.894L295.59 288.084C296.081 285.78 294.323 283.609 291.967 283.609H227.339C225.006 283.609 223.253 285.741 223.705 288.031L230.351 321.682C230.688 323.386 232.163 324.627 233.901 324.667L284.47 325.826C286.249 325.867 287.807 324.635 288.178 322.894Z" fill="#FFFFFE"/>
<path fill-rule="evenodd" clip-rule="evenodd" d="M288.178 322.894L288.667 322.998L296.079 288.188C296.142 287.892 296.173 287.596 296.173 287.305C296.173 285.04 294.337 283.111 291.967 283.109H227.339C224.973 283.111 223.134 285.037 223.134 287.305C223.134 287.576 223.16 287.851 223.215 288.127L229.86 321.779C230.243 323.713 231.917 325.122 233.889 325.167L284.458 326.325L284.556 326.327C286.535 326.326 288.252 324.942 288.667 322.998L288.178 322.894L287.689 322.79C287.373 324.271 286.063 325.327 284.556 325.327L284.481 325.326L233.912 324.167C232.409 324.133 231.133 323.059 230.841 321.585L224.196 287.934C224.154 287.721 224.134 287.511 224.134 287.305C224.134 286.444 224.484 285.645 225.061 285.06C225.639 284.475 226.435 284.109 227.339 284.109H291.967C292.873 284.109 293.669 284.476 294.247 285.061C294.824 285.646 295.173 286.445 295.173 287.305C295.173 287.526 295.15 287.752 295.101 287.98L287.689 322.79L288.178 322.894Z" fill="#132529"/>
<path fill-rule="evenodd" clip-rule="evenodd" d="M274.734 287.411H282.412C282.688 287.411 282.912 287.188 282.912 286.911C282.912 286.635 282.688 286.411 282.412 286.411H274.734C274.457 286.411 274.234 286.635 274.234 286.911C274.234 287.188 274.457 287.411 274.734 287.411Z" fill="#132529"/>
<path fill-rule="evenodd" clip-rule="evenodd" d="M238.065 287.411H267.212C267.488 287.411 267.712 287.188 267.712 286.911C267.712 286.635 267.488 286.411 267.212 286.411H238.065C237.788 286.411 237.565 286.635 237.565 286.911C237.565 287.188 237.788 287.411 238.065 287.411Z" fill="#132529"/>
<path fill-rule="evenodd" clip-rule="evenodd" d="M288.305 359.824L282.412 375.286C282.412 375.286 267.389 371.5 248.139 367.555C228.01 363.43 206.986 358.09 196.081 338.958C194.752 336.626 193.867 333.87 194.489 331.258C196.064 324.65 204.66 322.857 210.327 322.195C213.883 321.78 217.473 321.642 221.052 321.592C222.876 321.566 228.895 320.611 230.351 321.682C230.352 321.682 234.128 324.461 237.346 325.827C240.564 327.193 287.538 324.599 287.538 324.599C287.538 324.599 288.935 321.651 289.016 318.959C296.4 315.206 313.498 312.028 320.723 313.432C332.084 315.641 338.711 322.268 337.449 329.211C336.187 336.154 311.114 354.774 288.305 359.824Z" fill="#3B3E40"/>
<path fill-rule="evenodd" clip-rule="evenodd" d="M288.433 359.34C288.432 359.34 288.216 359.283 287.806 359.165C284.938 358.342 272.754 354.583 262.619 347.733C257.329 344.16 252.54 340.302 247.326 337.321C242.114 334.341 236.461 332.245 229.51 332.247C228.131 332.247 226.701 332.329 225.215 332.502C224.94 332.534 224.744 332.782 224.776 333.056C224.808 333.331 225.056 333.527 225.33 333.495C226.78 333.326 228.171 333.247 229.51 333.247C236.256 333.248 241.706 335.264 246.829 338.189C251.95 341.114 256.726 344.956 262.059 348.561C273.829 356.51 288.15 360.297 288.177 360.307C288.444 360.378 288.717 360.219 288.788 359.952C288.859 359.685 288.7 359.411 288.433 359.34Z" fill="#FFFFFE"/>
<path fill-rule="evenodd" clip-rule="evenodd" d="M259.792 346.766C267.301 344.601 272.766 339.77 278.667 335.206C284.924 330.361 291.528 325.68 298.613 322.097C298.86 321.972 298.959 321.671 298.834 321.425C298.709 321.179 298.409 321.08 298.162 321.205C290.988 324.834 284.334 329.553 278.054 334.416C272.119 339.015 266.756 343.724 259.515 345.805C259.25 345.881 259.097 346.158 259.173 346.424C259.249 346.689 259.526 346.842 259.792 346.766Z" fill="#FFFFFE"/>
<path fill-rule="evenodd" clip-rule="evenodd" d="M257.061 194.685H259.225C259.501 194.685 259.725 194.461 259.725 194.185C259.725 193.909 259.501 193.685 259.225 193.685H257.061C256.785 193.685 256.561 193.909 256.561 194.185C256.561 194.461 256.785 194.685 257.061 194.685Z" fill="#132529"/>
<path fill-rule="evenodd" clip-rule="evenodd" d="M267.029 261.503C267.029 266.645 262.86 270.81 257.721 270.81C252.579 270.81 248.414 266.645 248.414 261.503C248.414 256.364 252.579 252.195 257.721 252.195C262.86 252.195 267.029 256.364 267.029 261.503Z" fill="#3B3E40"/>
<path fill-rule="evenodd" clip-rule="evenodd" d="M261.19 258.437C261.268 258.456 261.236 258.57 261.154 258.565C258.152 258.466 255.632 260.649 254.179 264.462C254.079 264.732 253.774 264.869 253.502 264.765L251.763 264.111C251.44 263.988 251.368 263.671 251.513 263.363C253.025 260.18 256.063 258.205 259.283 258.205C259.919 258.205 260.555 258.281 261.19 258.437ZM260.586 258.996C261.958 258.996 263.193 259.725 263.974 261.118C263.992 261.146 264.001 261.175 264.001 261.203C264.001 261.293 263.942 261.364 263.865 261.364C263.852 261.364 263.842 261.364 263.829 261.359L261.89 260.767C261.716 260.727 261.654 260.612 261.634 260.573C261.633 260.572 261.632 260.57 261.631 260.568C261.222 259.782 260.795 259.365 260.182 259.2L260.155 259.195C260.128 259.181 260.105 259.148 260.105 259.11C260.105 259.091 260.11 259.077 260.114 259.062C260.123 259.043 260.141 259.024 260.16 259.02C260.305 259.006 260.446 258.996 260.586 258.996Z" fill="white"/>
</svg>
