<svg width="32" height="32" viewBox="0 0 32 32" fill="none" xmlns="http://www.w3.org/2000/svg">
<path fill-rule="evenodd" clip-rule="evenodd" d="M5.772 4H26.2213C27.2 4 28 4.77333 28 5.72933V26.2707C28 27.2267 27.2 28 26.2213 28H5.77067C4.792 28 4 27.2267 4 26.2707V5.72933C4 4.77333 4.79067 4 5.772 4ZM7.87661 10.8291C8.26372 11.2165 8.78905 11.4339 9.33667 11.4333L9.336 11.4333H9.33733L9.33667 11.4333C10.4763 11.4337 11.4006 10.5104 11.4013 9.37067C11.4021 8.23075 10.4786 7.30607 9.33867 7.30533C8.19875 7.3046 7.27407 8.22808 7.27333 9.368C7.27227 9.91585 7.48934 10.4416 7.87661 10.8291ZM20.8933 24.452H24.4467H24.448V18.1653C24.448 15.0813 23.7813 12.7107 20.1813 12.7107C18.448 12.7107 17.288 13.6613 16.8107 14.56H16.764V13H13.3507V24.452H16.9053V18.7853C16.9053 17.2907 17.188 15.8453 19.04 15.8453C20.8667 15.8453 20.8933 17.5547 20.8933 18.8827V24.452ZM7.55467 24.452V13H11.12V24.452H11.1187H7.55467Z" fill="black"/>
</svg>
