<svg width="625" height="108" viewBox="0 0 625 108" fill="none" xmlns="http://www.w3.org/2000/svg">
<g clip-path="url(#clip0_301_1145)">
<g clip-path="url(#clip1_301_1145)">
<path d="M8.13089 80L5.16689 71.9H3.91889L0.978887 80H2.10689L2.77889 78.104H6.23489L6.89489 80H8.13089ZM5.93489 77.228H3.05489L4.14689 74.168C4.27889 73.784 4.38689 73.436 4.48289 73.088H4.49489C4.59089 73.436 4.71089 73.784 4.84289 74.18L5.93489 77.228ZM15.8377 75.86C15.8377 73.076 14.2777 71.864 11.6737 71.864C10.7977 71.864 9.8977 71.9 9.2617 71.9V80C9.8617 80 10.4857 80.036 11.3017 80.036C13.9537 80.036 15.8377 78.632 15.8377 75.86ZM14.6617 75.932C14.6617 78.128 13.3297 79.112 11.4337 79.112C11.0977 79.112 10.6657 79.088 10.3657 79.04V72.8C10.6657 72.788 11.1457 72.764 11.5777 72.764C13.6777 72.764 14.6617 73.868 14.6617 75.932ZM23.9705 75.86C23.9705 73.076 22.4105 71.864 19.8065 71.864C18.9305 71.864 18.0305 71.9 17.3945 71.9V80C17.9945 80 18.6185 80.036 19.4345 80.036C22.0865 80.036 23.9705 78.632 23.9705 75.86ZM22.7945 75.932C22.7945 78.128 21.4625 79.112 19.5665 79.112C19.2305 79.112 18.7985 79.088 18.4985 79.04V72.8C18.7985 72.788 19.2785 72.764 19.7105 72.764C21.8105 72.764 22.7945 73.868 22.7945 75.932ZM30.8313 80L28.6233 77.108C28.4193 76.832 28.1673 76.532 27.9273 76.244C29.2113 76.148 30.3033 75.344 30.3033 73.964C30.3033 72.416 29.1513 71.864 27.5553 71.864C26.6673 71.864 26.0793 71.876 25.5273 71.9V80H26.6313V76.376H26.7753L29.4273 80H30.8313ZM29.1633 74.108C29.1633 74.972 28.4793 75.56 27.3153 75.56C26.9913 75.56 26.7513 75.548 26.6313 75.536V72.788C26.8473 72.764 27.0873 72.752 27.3633 72.752C28.5393 72.752 29.1633 73.136 29.1633 74.108ZM36.3241 80V79.064H33.2641V76.268H36.1801V75.38H33.2641V72.812H36.3241V71.9H32.1601V80H36.3241ZM42.6236 77.624C42.6236 75.08 38.9156 75.704 38.9156 73.964C38.9156 73.208 39.4436 72.704 40.5476 72.704C41.0156 72.704 41.5076 72.788 41.9396 72.92L42.0596 71.948C41.6156 71.852 41.0756 71.792 40.6076 71.792C38.7836 71.792 37.7756 72.752 37.7756 74.084C37.7756 76.664 41.4356 75.944 41.4356 77.768C41.4356 78.764 40.6196 79.148 39.6836 79.148C39.0836 79.148 38.4956 79.028 37.9916 78.824L37.8476 79.88C38.3516 80.024 38.9636 80.108 39.6236 80.108C41.4356 80.108 42.6236 79.076 42.6236 77.624ZM48.6704 77.624C48.6704 75.08 44.9624 75.704 44.9624 73.964C44.9624 73.208 45.4904 72.704 46.5944 72.704C47.0624 72.704 47.5544 72.788 47.9864 72.92L48.1064 71.948C47.6624 71.852 47.1224 71.792 46.6544 71.792C44.8304 71.792 43.8224 72.752 43.8224 74.084C43.8224 76.664 47.4824 75.944 47.4824 77.768C47.4824 78.764 46.6664 79.148 45.7304 79.148C45.1304 79.148 44.5424 79.028 44.0384 78.824L43.8944 79.88C44.3984 80.024 45.0104 80.108 45.6704 80.108C47.4824 80.108 48.6704 79.076 48.6704 77.624Z" fill="#BABABA"/>
<path d="M4.51289 101V91.55H3.49089L1.22289 92.362L1.43289 93.552L3.21089 92.838V101H4.51289ZM12.1228 101V99.796C10.5268 99.796 9.07076 99.81 8.23076 99.852V99.838L9.47676 98.382C11.1708 96.464 11.7728 95.274 11.7728 93.972C11.7728 92.53 10.8488 91.424 9.08476 91.424C8.11876 91.424 7.36276 91.648 6.71876 91.97L6.90076 93.118C7.43276 92.796 8.13276 92.544 8.74876 92.544C9.86876 92.544 10.4008 93.272 10.4008 94.168C10.4008 95.176 9.98076 96.114 8.38476 97.92L6.63476 99.95V101H12.1228ZM22.2133 98.228C22.2133 95.26 17.8873 95.988 17.8873 93.958C17.8873 93.076 18.5033 92.488 19.7913 92.488C20.3373 92.488 20.9113 92.586 21.4153 92.74L21.5553 91.606C21.0373 91.494 20.4073 91.424 19.8613 91.424C17.7333 91.424 16.5573 92.544 16.5573 94.098C16.5573 97.108 20.8273 96.268 20.8273 98.396C20.8273 99.558 19.8753 100.006 18.7833 100.006C18.0833 100.006 17.3973 99.866 16.8093 99.628L16.6413 100.86C17.2293 101.028 17.9433 101.126 18.7133 101.126C20.8273 101.126 22.2133 99.922 22.2133 98.228ZM27.6299 100.958L27.5039 99.922C27.2519 99.992 26.9439 100.034 26.6079 100.034C25.8519 100.034 25.6279 99.726 25.6279 98.578V95.022H27.5739V94.042H25.6279V91.438L24.3679 91.774V94.042H22.9399V95.022H24.3679V99.026C24.3679 100.524 24.8019 101.112 26.2299 101.112C26.6779 101.112 27.2239 101.042 27.6299 100.958ZM29.7843 99.404C29.1123 99.404 28.7903 100.174 29.1823 100.664C29.5043 101.07 29.4763 101.714 28.5663 102.68L29.1123 103.156C31.2823 101.182 30.8203 99.404 29.7843 99.404ZM41.3244 101V96.142C41.3244 94.91 40.8344 93.916 39.2384 93.916C38.0764 93.916 37.2224 94.532 36.8164 95.484L36.7884 95.47C36.8864 95.092 36.9144 94.532 36.9144 94.084V90.78H35.6544V101H36.9144V97.668C36.9144 96.128 37.7404 94.966 38.8884 94.966C39.8124 94.966 40.0784 95.54 40.0784 96.506V101H41.3244ZM48.9988 96.772C48.9988 95.218 48.1868 93.916 46.2408 93.916C44.2808 93.916 43.1048 95.484 43.1048 97.556C43.1048 100.006 44.2668 101.126 46.3668 101.126C47.2208 101.126 48.0748 100.958 48.7748 100.692L48.5928 99.698C47.9768 99.964 47.2768 100.104 46.6048 100.104C45.0928 100.104 44.3648 99.292 44.4068 97.556H48.9568C48.9848 97.276 48.9988 96.94 48.9988 96.772ZM47.7108 96.66H44.4348C44.5888 95.526 45.2468 94.868 46.1568 94.868C47.1368 94.868 47.7388 95.526 47.7108 96.66ZM52.0765 101V90.78H50.8165V101H52.0765ZM55.9095 91.844C55.9095 91.382 55.5315 91.018 55.0695 91.018C54.6075 91.018 54.2435 91.396 54.2435 91.844C54.2435 92.306 54.6075 92.656 55.0695 92.656C55.5315 92.656 55.9095 92.292 55.9095 91.844ZM55.6995 101V94.042H54.4395V101H55.6995ZM63.9426 97.402C63.9426 94.896 62.5986 93.916 60.8206 93.916C58.7206 93.916 57.4326 95.54 57.4326 97.584C57.4326 100.034 58.6646 101.126 60.5546 101.126C62.6126 101.126 63.9426 99.502 63.9426 97.402ZM62.6406 97.472C62.6406 99.25 61.7446 100.062 60.6946 100.062C59.4346 100.062 58.7346 99.138 58.7346 97.472C58.7346 95.736 59.7006 94.966 60.7086 94.966C61.9966 94.966 62.6406 95.89 62.6406 97.472ZM71.7115 97.192C71.7115 95.05 70.7875 93.916 69.1495 93.916C68.0575 93.916 67.2175 94.518 66.8255 95.47L66.7975 95.456C66.8815 95.064 66.9095 94.448 66.9095 94.042H65.6915V104.458H66.9515V101C67.3575 101.07 67.6935 101.084 68.1275 101.084C70.3815 101.084 71.7115 99.67 71.7115 97.192ZM70.3955 97.304C70.3955 99.306 69.4995 100.104 68.1835 100.104C67.7075 100.104 67.3155 100.048 66.9515 99.936V97.64C66.9515 96.422 67.5955 94.952 68.8555 94.952C69.9055 94.952 70.3955 95.806 70.3955 97.304ZM79.3781 97.402C79.3781 94.896 78.0341 93.916 76.2561 93.916C74.1561 93.916 72.8681 95.54 72.8681 97.584C72.8681 100.034 74.1001 101.126 75.9901 101.126C78.0481 101.126 79.3781 99.502 79.3781 97.402ZM78.0761 97.472C78.0761 99.25 77.1801 100.062 76.1301 100.062C74.8701 100.062 74.1701 99.138 74.1701 97.472C74.1701 95.736 75.1361 94.966 76.1441 94.966C77.4321 94.966 78.0761 95.89 78.0761 97.472ZM82.387 101V90.78H81.127V101H82.387ZM86.2201 91.844C86.2201 91.382 85.8421 91.018 85.3801 91.018C84.9181 91.018 84.5541 91.396 84.5541 91.844C84.5541 92.306 84.9181 92.656 85.3801 92.656C85.8421 92.656 86.2201 92.292 86.2201 91.844ZM86.0101 101V94.042H84.7501V101H86.0101ZM92.4331 98.9C92.4331 96.534 89.1851 97.416 89.1851 95.876C89.1851 95.274 89.6191 94.882 90.5431 94.882C91.0051 94.882 91.4811 94.966 91.9011 95.092L91.9991 94.07C91.5931 93.972 91.0751 93.916 90.6551 93.916C88.8071 93.916 87.8831 94.812 87.8831 96.002C87.8831 98.438 91.1171 97.472 91.1171 99.04C91.1171 99.698 90.5011 100.104 89.6191 100.104C89.0871 100.104 88.5131 100.006 88.0791 99.824L87.9531 100.944C88.3871 101.07 88.9611 101.126 89.5071 101.126C91.3131 101.126 92.4331 100.174 92.4331 98.9ZM94.5617 99.404C93.8897 99.404 93.5677 100.174 93.9597 100.664C94.2817 101.07 94.2537 101.714 93.3437 102.68L93.8897 103.156C96.0597 101.182 95.5977 99.404 94.5617 99.404ZM106.788 100.608L106.564 99.488C106.004 99.768 105.178 99.95 104.492 99.95C102.294 99.95 101.286 98.62 101.286 96.296C101.286 94.224 102.21 92.572 104.366 92.572C105.08 92.572 105.808 92.712 106.466 92.95L106.676 91.76C106.004 91.564 105.234 91.452 104.52 91.452C101.3 91.452 99.8857 93.622 99.8857 96.506C99.8857 99.18 101.146 101.098 104.184 101.098C105.136 101.098 106.06 100.902 106.788 100.608ZM113.399 101C113.371 100.384 113.357 99.642 113.357 98.998V96.352C113.357 94.84 112.741 93.916 110.795 93.916C109.885 93.916 108.961 94.126 108.289 94.406L108.527 95.4C109.129 95.12 109.969 94.896 110.627 94.896C111.733 94.896 112.097 95.428 112.097 96.534V96.856C109.437 96.856 107.925 97.752 107.925 99.25C107.925 100.37 108.695 101.126 109.857 101.126C110.991 101.126 111.887 100.468 112.223 99.6L112.237 99.614C112.181 100.006 112.167 100.496 112.167 101H113.399ZM112.097 97.92C112.097 99.012 111.341 100.132 110.221 100.132C109.577 100.132 109.157 99.67 109.157 99.082C109.157 98.368 109.801 97.738 112.097 97.738V97.92ZM117.228 91.844C117.228 91.382 116.85 91.018 116.388 91.018C115.926 91.018 115.562 91.396 115.562 91.844C115.562 92.306 115.926 92.656 116.388 92.656C116.85 92.656 117.228 92.292 117.228 91.844ZM117.018 101V94.042H115.758V101H117.018ZM122.867 93.93C121.481 93.762 120.767 94.728 120.473 95.694H120.445C120.557 95.12 120.599 94.476 120.599 94.042H119.381V101H120.641V98.2C120.641 95.974 121.341 94.91 122.811 95.162L122.867 93.93ZM130.046 97.402C130.046 94.896 128.702 93.916 126.924 93.916C124.824 93.916 123.536 95.54 123.536 97.584C123.536 100.034 124.768 101.126 126.658 101.126C128.716 101.126 130.046 99.502 130.046 97.402ZM128.744 97.472C128.744 99.25 127.848 100.062 126.798 100.062C125.538 100.062 124.838 99.138 124.838 97.472C124.838 95.736 125.804 94.966 126.812 94.966C128.1 94.966 128.744 95.89 128.744 97.472ZM137.616 97.5V96.464H134.312V97.5H137.616ZM147.372 101V99.908H143.802V96.646H147.204V95.61H143.802V92.614H147.372V91.55H142.514V101H147.372ZM155.382 101.938C155.382 100.678 154.542 99.978 153.044 99.922L151.77 99.88C150.93 99.852 150.58 99.726 150.58 99.334C150.58 99.11 150.734 98.886 151.028 98.746C151.28 98.816 151.49 98.844 151.77 98.844C153.744 98.844 154.71 97.752 154.71 96.31C154.71 95.778 154.5 95.316 154.15 95.036H155.298V94.042H152.932C152.582 93.958 152.33 93.916 151.952 93.916C150.048 93.916 148.998 95.134 148.998 96.506C148.998 97.43 149.39 98.06 150.034 98.438C149.558 98.676 149.25 99.11 149.25 99.614C149.25 100.076 149.516 100.468 149.95 100.65C149.32 101 148.774 101.672 148.774 102.498C148.774 103.842 149.922 104.584 151.7 104.584C153.884 104.584 155.382 103.408 155.382 101.938ZM153.464 96.408C153.464 97.374 152.848 97.934 151.854 97.934C150.818 97.934 150.244 97.374 150.244 96.422C150.244 95.526 150.846 94.854 151.896 94.854C152.904 94.854 153.464 95.456 153.464 96.408ZM154.108 102.106C154.108 102.946 153.324 103.576 151.896 103.576C150.818 103.576 150.034 103.1 150.034 102.274C150.034 101.756 150.384 101.28 150.93 100.902C151.042 100.916 151.21 100.916 151.336 100.916L152.694 100.958C153.66 101 154.108 101.42 154.108 102.106ZM162.574 94.042H161.202L160.082 97.234C159.816 97.99 159.522 98.886 159.382 99.39H159.368C159.214 98.83 159.046 98.284 158.836 97.654L157.534 94.042H156.092L158.738 101L158.444 101.756C157.926 103.128 157.324 103.478 156.596 103.478C156.33 103.478 155.994 103.436 155.77 103.366L155.616 104.486C155.854 104.528 156.19 104.57 156.442 104.57C158.01 104.57 158.878 103.828 159.732 101.588L162.574 94.042ZM169.903 97.192C169.903 95.05 168.979 93.916 167.341 93.916C166.249 93.916 165.409 94.518 165.017 95.47L164.989 95.456C165.073 95.064 165.101 94.448 165.101 94.042H163.883V104.458H165.143V101C165.549 101.07 165.885 101.084 166.319 101.084C168.573 101.084 169.903 99.67 169.903 97.192ZM168.587 97.304C168.587 99.306 167.691 100.104 166.375 100.104C165.899 100.104 165.507 100.048 165.143 99.936V97.64C165.143 96.422 165.787 94.952 167.047 94.952C168.097 94.952 168.587 95.806 168.587 97.304ZM175.232 100.958L175.106 99.922C174.854 99.992 174.546 100.034 174.21 100.034C173.454 100.034 173.23 99.726 173.23 98.578V95.022H175.176V94.042H173.23V91.438L171.97 91.774V94.042H170.542V95.022H171.97V99.026C171.97 100.524 172.404 101.112 173.832 101.112C174.28 101.112 174.826 101.042 175.232 100.958Z" fill="white"/>
</g>
<g clip-path="url(#clip2_301_1145)">
<path d="M224.043 80V79.064H220.983V76.268H223.899V75.38H220.983V72.812H224.043V71.9H219.879V80H224.043ZM234.974 80L233.75 71.9H232.37L230.63 77.072C230.474 77.552 230.342 78.056 230.186 78.62H230.174C230.042 78.068 229.85 77.42 229.718 77.012L227.99 71.9H226.646L225.47 80H226.586L227.138 75.404C227.234 74.624 227.306 73.928 227.354 73.256H227.378C227.498 73.82 227.678 74.456 227.894 75.116L229.538 80H230.702L232.442 74.78C232.634 74.18 232.766 73.652 232.862 73.256H232.886C232.934 73.736 233.018 74.444 233.138 75.308L233.822 80H234.974ZM242.76 80L239.796 71.9H238.548L235.608 80H236.736L237.408 78.104H240.864L241.524 80H242.76ZM240.564 77.228H237.684L238.776 74.168C238.908 73.784 239.016 73.436 239.112 73.088H239.124C239.22 73.436 239.34 73.784 239.472 74.18L240.564 77.228ZM244.995 80V71.9H243.891V80H244.995ZM251.25 80V79.052H248.358V71.9H247.254V80H251.25ZM261.229 80L258.265 71.9H257.017L254.077 80H255.205L255.877 78.104H259.333L259.993 80H261.229ZM259.033 77.228H256.153L257.245 74.168C257.377 73.784 257.485 73.436 257.581 73.088H257.593C257.689 73.436 257.809 73.784 257.941 74.18L259.033 77.228ZM268.935 75.86C268.935 73.076 267.375 71.864 264.771 71.864C263.895 71.864 262.995 71.9 262.359 71.9V80C262.959 80 263.583 80.036 264.399 80.036C267.051 80.036 268.935 78.632 268.935 75.86ZM267.759 75.932C267.759 78.128 266.427 79.112 264.531 79.112C264.195 79.112 263.763 79.088 263.463 79.04V72.8C263.763 72.788 264.243 72.764 264.675 72.764C266.775 72.764 267.759 73.868 267.759 75.932ZM277.068 75.86C277.068 73.076 275.508 71.864 272.904 71.864C272.028 71.864 271.128 71.9 270.492 71.9V80C271.092 80 271.716 80.036 272.532 80.036C275.184 80.036 277.068 78.632 277.068 75.86ZM275.892 75.932C275.892 78.128 274.56 79.112 272.664 79.112C272.328 79.112 271.896 79.088 271.596 79.04V72.8C271.896 72.788 272.376 72.764 272.808 72.764C274.908 72.764 275.892 73.868 275.892 75.932ZM283.929 80L281.721 77.108C281.517 76.832 281.265 76.532 281.025 76.244C282.309 76.148 283.401 75.344 283.401 73.964C283.401 72.416 282.249 71.864 280.653 71.864C279.765 71.864 279.177 71.876 278.625 71.9V80H279.729V76.376H279.873L282.525 80H283.929ZM282.261 74.108C282.261 74.972 281.577 75.56 280.413 75.56C280.089 75.56 279.849 75.548 279.729 75.536V72.788C279.945 72.764 280.185 72.752 280.461 72.752C281.637 72.752 282.261 73.136 282.261 74.108ZM289.422 80V79.064H286.362V76.268H289.278V75.38H286.362V72.812H289.422V71.9H285.258V80H289.422ZM295.721 77.624C295.721 75.08 292.013 75.704 292.013 73.964C292.013 73.208 292.541 72.704 293.645 72.704C294.113 72.704 294.605 72.788 295.037 72.92L295.157 71.948C294.713 71.852 294.173 71.792 293.705 71.792C291.881 71.792 290.873 72.752 290.873 74.084C290.873 76.664 294.533 75.944 294.533 77.768C294.533 78.764 293.717 79.148 292.781 79.148C292.181 79.148 291.593 79.028 291.089 78.824L290.945 79.88C291.449 80.024 292.061 80.108 292.721 80.108C294.533 80.108 295.721 79.076 295.721 77.624ZM301.768 77.624C301.768 75.08 298.06 75.704 298.06 73.964C298.06 73.208 298.588 72.704 299.692 72.704C300.16 72.704 300.652 72.788 301.084 72.92L301.204 71.948C300.76 71.852 300.22 71.792 299.752 71.792C297.928 71.792 296.92 72.752 296.92 74.084C296.92 76.664 300.58 75.944 300.58 77.768C300.58 78.764 299.764 79.148 298.828 79.148C298.228 79.148 297.64 79.028 297.136 78.824L296.992 79.88C297.496 80.024 298.108 80.108 298.768 80.108C300.58 80.108 301.768 79.076 301.768 77.624Z" fill="#BABABA"/>
<path d="M226.405 100.608L226.181 99.488C225.621 99.768 224.795 99.95 224.109 99.95C221.911 99.95 220.903 98.62 220.903 96.296C220.903 94.224 221.827 92.572 223.983 92.572C224.697 92.572 225.425 92.712 226.083 92.95L226.293 91.76C225.621 91.564 224.851 91.452 224.137 91.452C220.917 91.452 219.503 93.622 219.503 96.506C219.503 99.18 220.763 101.098 223.801 101.098C224.753 101.098 225.677 100.902 226.405 100.608ZM233.016 101C232.988 100.384 232.974 99.642 232.974 98.998V96.352C232.974 94.84 232.358 93.916 230.412 93.916C229.502 93.916 228.578 94.126 227.906 94.406L228.144 95.4C228.746 95.12 229.586 94.896 230.244 94.896C231.35 94.896 231.714 95.428 231.714 96.534V96.856C229.054 96.856 227.542 97.752 227.542 99.25C227.542 100.37 228.312 101.126 229.474 101.126C230.608 101.126 231.504 100.468 231.84 99.6L231.854 99.614C231.798 100.006 231.784 100.496 231.784 101H233.016ZM231.714 97.92C231.714 99.012 230.958 100.132 229.838 100.132C229.194 100.132 228.774 99.67 228.774 99.082C228.774 98.368 229.418 97.738 231.714 97.738V97.92ZM238.861 93.93C237.475 93.762 236.761 94.728 236.467 95.694H236.439C236.551 95.12 236.593 94.476 236.593 94.042H235.375V101H236.635V98.2C236.635 95.974 237.335 94.91 238.805 95.162L238.861 93.93ZM245.425 96.772C245.425 95.218 244.613 93.916 242.667 93.916C240.707 93.916 239.531 95.484 239.531 97.556C239.531 100.006 240.693 101.126 242.793 101.126C243.647 101.126 244.501 100.958 245.201 100.692L245.019 99.698C244.403 99.964 243.703 100.104 243.031 100.104C241.519 100.104 240.791 99.292 240.833 97.556H245.383C245.411 97.276 245.425 96.94 245.425 96.772ZM244.137 96.66H240.861C241.015 95.526 241.673 94.868 242.583 94.868C243.563 94.868 244.165 95.526 244.137 96.66ZM252.52 96.772C252.52 95.218 251.708 93.916 249.762 93.916C247.802 93.916 246.626 95.484 246.626 97.556C246.626 100.006 247.788 101.126 249.888 101.126C250.742 101.126 251.596 100.958 252.296 100.692L252.114 99.698C251.498 99.964 250.798 100.104 250.126 100.104C248.614 100.104 247.886 99.292 247.928 97.556H252.478C252.506 97.276 252.52 96.94 252.52 96.772ZM251.232 96.66H247.956C248.11 95.526 248.768 94.868 249.678 94.868C250.658 94.868 251.26 95.526 251.232 96.66ZM257.824 93.93C256.438 93.762 255.724 94.728 255.43 95.694H255.402C255.514 95.12 255.556 94.476 255.556 94.042H254.338V101H255.598V98.2C255.598 95.974 256.298 94.91 257.768 95.162L257.824 93.93ZM263.347 98.9C263.347 96.534 260.099 97.416 260.099 95.876C260.099 95.274 260.533 94.882 261.457 94.882C261.919 94.882 262.395 94.966 262.815 95.092L262.913 94.07C262.507 93.972 261.989 93.916 261.569 93.916C259.721 93.916 258.797 94.812 258.797 96.002C258.797 98.438 262.031 97.472 262.031 99.04C262.031 99.698 261.415 100.104 260.533 100.104C260.001 100.104 259.427 100.006 258.993 99.824L258.867 100.944C259.301 101.07 259.875 101.126 260.421 101.126C262.227 101.126 263.347 100.174 263.347 98.9ZM276.42 95.316C276.42 92.894 274.768 90.738 271.394 90.738C268.034 90.738 265.248 93.384 265.248 97.066C265.248 100.202 267.194 102.218 270.582 102.218C271.394 102.218 272.43 102.078 273.27 101.812L273.088 100.79C272.318 101.028 271.548 101.154 270.722 101.154C267.894 101.154 266.41 99.516 266.41 96.912C266.41 93.874 268.58 91.746 271.31 91.746C274.166 91.746 275.258 93.566 275.258 95.386C275.258 97.234 274.46 98.158 273.424 98.158C272.724 98.158 272.402 97.738 272.584 96.73L273.13 93.762C272.696 93.636 272.052 93.552 271.422 93.552C269.294 93.552 268.258 95.246 268.258 97.304C268.258 98.522 268.706 99.194 269.616 99.194C270.624 99.194 271.492 98.242 271.716 97.668H271.758C271.66 98.438 272.08 99.194 273.242 99.194C275.034 99.194 276.42 97.822 276.42 95.316ZM271.968 94.518L271.814 95.26C271.436 97.22 270.596 98.158 269.91 98.158C269.504 98.158 269.308 97.794 269.308 97.08C269.308 96.016 269.868 94.434 271.156 94.434C271.464 94.434 271.744 94.462 271.968 94.518ZM284.94 97.192C284.94 95.064 284.016 93.916 282.378 93.916C281.328 93.916 280.46 94.504 280.082 95.47L280.054 95.456C280.138 95.106 280.18 94.56 280.18 94.154V90.78H278.92V100.818C279.662 101.014 280.348 101.098 281.314 101.098C283.554 101.098 284.94 99.642 284.94 97.192ZM283.624 97.304C283.624 99.306 282.728 100.104 281.412 100.104C280.922 100.104 280.53 100.048 280.18 99.936V97.64C280.18 96.422 280.824 94.952 282.084 94.952C283.134 94.952 283.624 95.806 283.624 97.304ZM292.607 97.402C292.607 94.896 291.263 93.916 289.485 93.916C287.385 93.916 286.097 95.54 286.097 97.584C286.097 100.034 287.329 101.126 289.219 101.126C291.277 101.126 292.607 99.502 292.607 97.402ZM291.305 97.472C291.305 99.25 290.409 100.062 289.359 100.062C288.099 100.062 287.399 99.138 287.399 97.472C287.399 95.736 288.365 94.966 289.373 94.966C290.661 94.966 291.305 95.89 291.305 97.472ZM300.026 101V94.042H298.766V97.374C298.766 98.914 297.94 100.076 296.792 100.076C295.868 100.076 295.602 99.502 295.602 98.536V94.042H294.356V98.9C294.356 100.132 294.846 101.126 296.442 101.126C297.632 101.126 298.486 100.482 298.892 99.53H298.92C298.836 99.936 298.808 100.58 298.808 101H300.026ZM308.428 97.192C308.428 95.064 307.504 93.916 305.866 93.916C304.816 93.916 303.948 94.504 303.57 95.47L303.542 95.456C303.626 95.106 303.668 94.56 303.668 94.154V90.78H302.408V100.818C303.15 101.014 303.836 101.098 304.802 101.098C307.042 101.098 308.428 99.642 308.428 97.192ZM307.112 97.304C307.112 99.306 306.216 100.104 304.9 100.104C304.41 100.104 304.018 100.048 303.668 99.936V97.64C303.668 96.422 304.312 94.952 305.572 94.952C306.622 94.952 307.112 95.806 307.112 97.304ZM315.606 94.042H314.234L313.114 97.234C312.848 97.99 312.554 98.886 312.414 99.39H312.4C312.246 98.83 312.078 98.284 311.868 97.654L310.566 94.042H309.124L311.77 101L311.476 101.756C310.958 103.128 310.356 103.478 309.628 103.478C309.362 103.478 309.026 103.436 308.802 103.366L308.648 104.486C308.886 104.528 309.222 104.57 309.474 104.57C311.042 104.57 311.91 103.828 312.764 101.588L315.606 94.042ZM321.583 101C321.555 100.384 321.541 99.642 321.541 98.998V96.352C321.541 94.84 320.925 93.916 318.979 93.916C318.069 93.916 317.145 94.126 316.473 94.406L316.711 95.4C317.313 95.12 318.153 94.896 318.811 94.896C319.917 94.896 320.281 95.428 320.281 96.534V96.856C317.621 96.856 316.109 97.752 316.109 99.25C316.109 100.37 316.879 101.126 318.041 101.126C319.175 101.126 320.071 100.468 320.407 99.6L320.421 99.614C320.365 100.006 320.351 100.496 320.351 101H321.583ZM320.281 97.92C320.281 99.012 319.525 100.132 318.405 100.132C317.761 100.132 317.341 99.67 317.341 99.082C317.341 98.368 317.985 97.738 320.281 97.738V97.92ZM329.611 101V96.142C329.611 94.91 329.121 93.916 327.525 93.916C326.335 93.916 325.481 94.56 325.075 95.512H325.047C325.131 95.106 325.159 94.462 325.159 94.042H323.941V101H325.201V97.668C325.201 96.128 326.027 94.966 327.175 94.966C328.099 94.966 328.365 95.54 328.365 96.506V101H329.611ZM337.426 101V90.78H336.166V94.014C335.746 93.972 335.382 93.944 335.004 93.944C332.792 93.944 331.406 95.414 331.406 97.85C331.406 99.866 332.246 101.126 333.954 101.126C335.06 101.126 335.914 100.51 336.292 99.572L336.32 99.586C336.236 99.992 336.208 100.594 336.208 101H337.426ZM336.166 97.402C336.166 98.62 335.522 100.09 334.262 100.09C333.212 100.09 332.722 99.236 332.722 97.738C332.722 95.736 333.604 94.938 334.92 94.938C335.326 94.938 335.746 94.994 336.166 95.092V97.402ZM343.959 90.822C343.581 90.738 343.203 90.696 342.811 90.696C341.075 90.696 340.151 91.606 340.151 93.524V94.042H338.709V95.022H340.151V101H341.397V95.022H343.329V94.042H341.397V93.51C341.397 92.278 341.831 91.718 342.825 91.718C343.161 91.718 343.525 91.76 343.847 91.872L343.959 90.822ZM345.259 100.258C345.259 99.782 344.867 99.39 344.377 99.39C343.901 99.39 343.509 99.782 343.509 100.258C343.509 100.734 343.901 101.126 344.377 101.126C344.867 101.126 345.259 100.734 345.259 100.258ZM351.678 100.734L351.482 99.684C351.006 99.908 350.446 100.02 349.858 100.02C348.318 100.02 347.884 98.942 347.884 97.584C347.884 96.058 348.57 94.994 349.83 94.994C350.404 94.994 350.978 95.134 351.412 95.302L351.65 94.224C351.174 94.042 350.572 93.944 349.928 93.944C347.702 93.944 346.554 95.512 346.554 97.766C346.554 100.314 347.94 101.098 349.606 101.098C350.32 101.098 351.104 100.972 351.678 100.734ZM358.929 97.402C358.929 94.896 357.585 93.916 355.807 93.916C353.707 93.916 352.419 95.54 352.419 97.584C352.419 100.034 353.651 101.126 355.541 101.126C357.599 101.126 358.929 99.502 358.929 97.402ZM357.627 97.472C357.627 99.25 356.731 100.062 355.681 100.062C354.421 100.062 353.721 99.138 353.721 97.472C353.721 95.736 354.687 94.966 355.695 94.966C356.983 94.966 357.627 95.89 357.627 97.472ZM370.604 101V96.184C370.604 94.616 369.848 93.916 368.532 93.916C367.188 93.916 366.432 94.84 366.152 95.498C366.082 94.924 365.704 93.916 364.22 93.916C363.114 93.916 362.218 94.546 361.812 95.526L361.798 95.512C361.868 95.092 361.896 94.462 361.896 94.042H360.678V101H361.938V97.696C361.938 96.1 362.82 94.966 363.884 94.966C364.836 94.966 365.018 95.652 365.018 96.52V101H366.264V97.696C366.264 96.002 367.216 94.966 368.21 94.966C369.12 94.966 369.344 95.582 369.344 96.534V101H370.604Z" fill="white"/>
</g>
<g clip-path="url(#clip3_301_1145)">
<path d="M441.799 74.216C441.799 72.776 440.779 71.864 438.907 71.864C437.947 71.864 436.879 71.9 436.879 71.9V80H437.983V76.928C437.983 76.928 438.331 76.964 438.727 76.964C440.647 76.964 441.799 75.824 441.799 74.216ZM440.659 74.36C440.659 75.38 440.059 76.052 438.823 76.052C438.367 76.052 437.983 75.98 437.983 75.98V72.788C437.983 72.788 438.355 72.764 438.775 72.764C440.059 72.764 440.659 73.328 440.659 74.36ZM449.543 80V71.9H448.439V75.332H444.311V71.9H443.207V80H444.311V76.268H448.439V80H449.543ZM458.522 75.848C458.522 73.4 457.334 71.792 454.91 71.792C452.81 71.792 451.07 73.34 451.07 76.052C451.07 78.5 452.246 80.108 454.682 80.108C456.782 80.108 458.522 78.56 458.522 75.848ZM457.346 76.016C457.346 78.02 456.194 79.136 454.79 79.136C453.074 79.136 452.246 77.828 452.246 75.872C452.246 73.88 453.398 72.752 454.802 72.752C456.506 72.752 457.346 74.072 457.346 76.016ZM466.491 80V71.9H465.423V73.976C465.423 75.368 465.471 77.636 465.507 78.644C465.243 78.104 464.931 77.528 464.619 77L461.511 71.9H460.047V80H461.115V77.744C461.115 76.364 461.079 74.06 461.031 73.208C461.259 73.724 461.535 74.228 461.871 74.804L465.027 80H466.491ZM472.93 80V79.064H469.87V76.268H472.786V75.38H469.87V72.812H472.93V71.9H468.766V80H472.93ZM483.846 80V71.9H482.778V73.976C482.778 75.368 482.826 77.636 482.862 78.644C482.598 78.104 482.286 77.528 481.974 77L478.866 71.9H477.402V80H478.47V77.744C478.47 76.364 478.434 74.06 478.386 73.208C478.614 73.724 478.89 74.228 479.226 74.804L482.382 80H483.846ZM492.362 76.904V71.9H491.282V76.988C491.282 78.62 490.622 79.208 489.218 79.208C487.574 79.208 487.202 78.308 487.202 77.192V71.9H486.098V77.276C486.098 78.704 486.602 80.108 489.134 80.108C491.246 80.108 492.362 79.028 492.362 76.904ZM503.373 80L502.149 71.9H500.769L499.029 77.072C498.873 77.552 498.741 78.056 498.585 78.62H498.573C498.441 78.068 498.249 77.42 498.117 77.012L496.389 71.9H495.045L493.869 80H494.985L495.537 75.404C495.633 74.624 495.705 73.928 495.753 73.256H495.777C495.897 73.82 496.077 74.456 496.293 75.116L497.937 80H499.101L500.841 74.78C501.033 74.18 501.165 73.652 501.261 73.256H501.285C501.333 73.736 501.417 74.444 501.537 75.308L502.221 80H503.373ZM510.173 77.576C510.173 76.58 509.513 75.848 508.529 75.716V75.704C509.417 75.392 509.921 74.672 509.921 73.808C509.921 72.596 509.069 71.864 507.329 71.864C506.357 71.864 505.553 71.888 504.965 71.9V80C505.745 80.012 506.441 80.036 507.017 80.036C509.429 80.036 510.173 78.668 510.173 77.576ZM508.769 73.988C508.769 74.888 508.133 75.404 506.801 75.404C506.513 75.404 506.297 75.404 506.069 75.392V72.764C506.381 72.752 506.765 72.74 507.149 72.74C508.385 72.74 508.769 73.268 508.769 73.988ZM509.009 77.636C509.009 78.488 508.421 79.136 507.101 79.136C506.753 79.136 506.285 79.112 506.069 79.088V76.244C506.261 76.232 506.693 76.232 506.825 76.232C508.145 76.232 509.009 76.616 509.009 77.636ZM516.078 80V79.064H513.018V76.268H515.934V75.38H513.018V72.812H516.078V71.9H511.914V80H516.078ZM523.265 80L521.057 77.108C520.853 76.832 520.601 76.532 520.361 76.244C521.645 76.148 522.737 75.344 522.737 73.964C522.737 72.416 521.585 71.864 519.989 71.864C519.101 71.864 518.513 71.876 517.961 71.9V80H519.065V76.376H519.209L521.861 80H523.265ZM521.597 74.108C521.597 74.972 520.913 75.56 519.749 75.56C519.425 75.56 519.185 75.548 519.065 75.536V72.788C519.281 72.764 519.521 72.752 519.797 72.752C520.973 72.752 521.597 73.136 521.597 74.108Z" fill="#BABABA"/>
<path d="M439.821 102.464C438.645 100.49 438.071 98.348 438.071 95.954C438.071 93.686 438.673 91.446 439.793 89.5L438.897 89.066C437.315 91.572 436.839 93.994 436.839 96.024C436.839 98.082 437.231 100.308 438.883 102.926L439.821 102.464ZM447.209 96.36V95.31H444.535V92.51H443.345V95.31H440.685V96.36H443.345V99.174H444.535V96.36H447.209ZM454.136 100V98.796C452.54 98.796 451.084 98.81 450.244 98.852V98.838L451.49 97.382C453.184 95.464 453.786 94.274 453.786 92.972C453.786 91.53 452.862 90.424 451.098 90.424C450.132 90.424 449.376 90.648 448.732 90.97L448.914 92.118C449.446 91.796 450.146 91.544 450.762 91.544C451.882 91.544 452.414 92.272 452.414 93.168C452.414 94.176 451.994 95.114 450.398 96.92L448.648 98.95V100H454.136ZM462.326 95.184C462.326 91.754 461.038 90.438 459.008 90.438C457.076 90.438 455.48 91.992 455.48 95.366C455.48 98.796 456.782 100.112 458.798 100.112C460.744 100.112 462.326 98.558 462.326 95.184ZM460.982 95.31C460.982 98.04 460.086 99.062 458.896 99.062C457.538 99.062 456.824 97.872 456.824 95.254C456.824 92.51 457.734 91.488 458.91 91.488C460.282 91.488 460.982 92.678 460.982 95.31ZM466.33 95.954C466.33 93.896 465.938 91.67 464.3 89.066L463.362 89.514C464.524 91.488 465.098 93.63 465.098 96.024C465.098 98.306 464.51 100.546 463.376 102.478L464.272 102.926C465.854 100.406 466.33 97.998 466.33 95.954ZM473.939 100V90.55H472.917L470.649 91.362L470.859 92.552L472.637 91.838V100H473.939ZM478.861 100V90.55H477.839L475.571 91.362L475.781 92.552L477.559 91.838V100H478.861ZM483.782 100V90.55H482.76L480.492 91.362L480.702 92.552L482.48 91.838V100H483.782ZM491.753 100V90.55H490.731L488.463 91.362L488.673 92.552L490.451 91.838V100H491.753ZM499.363 100V98.796C497.767 98.796 496.311 98.81 495.471 98.852V98.838L496.717 97.382C498.411 95.464 499.013 94.274 499.013 92.972C499.013 91.53 498.089 90.424 496.325 90.424C495.359 90.424 494.603 90.648 493.959 90.97L494.141 92.118C494.673 91.796 495.373 91.544 495.989 91.544C497.109 91.544 497.641 92.272 497.641 93.168C497.641 94.176 497.221 95.114 495.625 96.92L493.875 98.95V100H499.363ZM506.737 100V90.55H505.715L503.447 91.362L503.657 92.552L505.435 91.838V100H506.737ZM514.347 100V98.796C512.751 98.796 511.295 98.81 510.455 98.852V98.838L511.701 97.382C513.395 95.464 513.997 94.274 513.997 92.972C513.997 91.53 513.073 90.424 511.309 90.424C510.343 90.424 509.587 90.648 508.943 90.97L509.125 92.118C509.657 91.796 510.357 91.544 510.973 91.544C512.093 91.544 512.625 92.272 512.625 93.168C512.625 94.176 512.205 95.114 510.609 96.92L508.859 98.95V100H514.347ZM521.011 97.158C521.011 95.996 520.213 95.17 519.051 94.904V94.876C520.017 94.526 520.647 93.7 520.647 92.622C520.647 91.404 519.821 90.424 518.043 90.424C517.315 90.424 516.601 90.592 516.013 90.83L516.125 91.908C516.629 91.642 517.175 91.488 517.763 91.488C518.757 91.488 519.317 92.006 519.317 92.86C519.317 93.98 518.463 94.666 516.335 94.61V95.632C516.601 95.604 516.881 95.576 517.217 95.576C518.827 95.576 519.653 96.248 519.653 97.242C519.653 98.236 518.827 99.02 517.427 99.02C516.895 99.02 516.349 98.95 515.985 98.824L515.831 99.958C516.195 100.056 516.783 100.112 517.357 100.112C519.485 100.112 521.011 98.88 521.011 97.158ZM529.205 97.788V96.64H527.623V90.55H525.929L522.107 96.808L522.191 97.788H526.377V100H527.623V97.788H529.205ZM526.391 96.654C525.859 96.654 524.165 96.654 523.339 96.682L526.377 91.74H526.391V96.654ZM535.448 96.878C535.448 95.226 534.258 94.232 531.78 94.246V91.754L534.944 91.768V90.55H530.59V95.31C530.842 95.282 531.15 95.282 531.388 95.282C533.278 95.282 534.118 95.884 534.118 97.046C534.118 98.222 533.222 99.006 531.766 99.006C531.29 99.006 530.758 98.936 530.422 98.81L530.268 99.958C530.618 100.042 531.164 100.098 531.668 100.098C533.866 100.098 535.448 98.824 535.448 96.878Z" fill="white"/>
</g>
<path d="M13.4829 21.0788L13.0029 18.3188C12.1629 18.7268 10.9149 18.9908 9.93089 18.9908C6.66689 18.9908 5.20289 17.0228 5.20289 13.5188C5.20289 10.3508 6.69089 8.0708 9.73889 8.0708C10.8189 8.0708 11.9229 8.2628 12.9069 8.6468L13.3389 5.7668C12.2829 5.4548 11.0349 5.2868 9.88289 5.2868C4.45889 5.2868 1.77089 8.9108 1.77089 14.0468C1.77089 18.0788 3.59489 21.8228 9.25889 21.8228C10.7709 21.8228 12.2829 21.5348 13.4829 21.0788ZM26.4873 15.4388C26.4873 11.3348 24.3033 9.4628 20.8953 9.4628C17.2713 9.4628 14.7993 12.1508 14.7993 15.8708C14.7993 20.1188 17.0073 21.8708 20.3913 21.8708C23.9433 21.8708 26.4873 19.1828 26.4873 15.4388ZM23.3193 15.6068C23.3193 18.0308 22.1433 19.2548 20.6313 19.2548C18.8793 19.2548 17.9673 18.0068 17.9673 15.5588C17.9673 13.1108 19.3113 12.0548 20.6793 12.0548C22.4793 12.0548 23.3193 13.3028 23.3193 15.6068ZM39.297 21.6308V13.2548C39.297 11.1668 38.433 9.4628 35.7449 9.4628C33.8009 9.4628 32.4089 10.4468 31.6889 11.8388H31.6649C31.7849 11.2148 31.8329 10.2548 31.8329 9.7028H28.9289V21.6308H32.0009V15.8708C32.0009 13.7828 33.2249 12.0308 34.7609 12.0308C35.9129 12.0308 36.2489 12.7748 36.2489 13.9988V21.6308H39.297ZM49.0993 21.5348L48.8833 19.1108C48.4753 19.2308 48.0193 19.2788 47.5153 19.2788C46.4593 19.2788 46.0993 18.8468 46.0993 17.3108V12.0788H49.0033V9.7028H46.0993V5.2148L43.0513 6.0308V9.7028H40.9873V12.0788H43.0513V18.1268C43.0513 20.9108 43.8673 21.8708 46.5073 21.8708C47.3473 21.8708 48.3313 21.7268 49.0993 21.5348ZM60.8113 21.6308C60.7393 20.6468 60.7153 19.5188 60.7153 18.5588V13.6388C60.7153 10.9748 59.6113 9.4388 55.9153 9.4388C54.3073 9.4388 52.6033 9.7748 51.4033 10.2548L51.9073 12.6068C52.9633 12.1508 54.4273 11.7908 55.5073 11.7908C57.0913 11.7908 57.6433 12.4388 57.6433 13.8788V14.3108C53.4673 14.3108 50.7553 15.6308 50.7553 18.4628C50.7553 20.4068 52.0033 21.8708 54.1633 21.8708C55.9393 21.8708 57.4033 20.9348 57.9793 19.5908L58.0033 19.6148C57.9073 20.2388 57.8833 20.9348 57.8833 21.6308H60.8113ZM57.6433 16.6388C57.6433 18.0788 56.6353 19.5188 55.1473 19.5188C54.2593 19.5188 53.7073 18.8948 53.7073 18.1268C53.7073 17.0948 54.5473 16.3268 57.6433 16.3268V16.6388ZM71.9812 21.2948L71.5732 18.7268C70.8772 19.0388 70.0612 19.2068 69.2452 19.2068C67.2052 19.2068 66.4612 17.7908 66.4612 15.7508C66.4612 13.5428 67.3972 12.0788 69.2212 12.0788C70.0132 12.0788 70.8052 12.2708 71.4532 12.5348L71.9332 9.8948C71.1652 9.6308 70.2292 9.4868 69.3172 9.4868C65.1892 9.4868 63.2452 12.3428 63.2452 16.0628C63.2452 20.1188 65.3092 21.8468 68.6212 21.8468C69.7732 21.8468 71.0452 21.6548 71.9812 21.2948ZM80.9743 21.5348L80.7583 19.1108C80.3503 19.2308 79.8943 19.2788 79.3903 19.2788C78.3343 19.2788 77.9743 18.8468 77.9743 17.3108V12.0788H80.8783V9.7028H77.9743V5.2148L74.9263 6.0308V9.7028H72.8623V12.0788H74.9263V18.1268C74.9263 20.9108 75.7423 21.8708 78.3823 21.8708C79.2223 21.8708 80.2063 21.7268 80.9743 21.5348ZM98.9688 21.6308V9.7028H95.8968V15.4628C95.8968 17.5508 94.6968 19.3028 93.1368 19.3028C91.9848 19.3028 91.6488 18.5588 91.6488 17.3348V9.7028H88.6008V18.0788C88.6008 20.1668 89.4648 21.8708 92.1528 21.8708C94.1208 21.8708 95.4888 20.8868 96.2088 19.4948H96.2328C96.1128 20.1188 96.0888 21.0788 96.0888 21.6308H98.9688ZM109.704 17.9108C109.704 13.9988 104.784 15.0068 104.784 12.9908C104.784 12.2468 105.336 11.7668 106.536 11.7668C107.28 11.7668 108.048 11.8868 108.696 12.0788L108.84 9.6788C108.168 9.5348 107.352 9.4388 106.68 9.4388C103.224 9.4388 101.616 11.1428 101.616 13.2548C101.616 17.3108 106.464 16.0628 106.464 18.1748C106.464 18.9668 105.696 19.4708 104.544 19.4708C103.656 19.4708 102.72 19.3028 102 18.9908L101.784 21.5588C102.552 21.7748 103.512 21.8708 104.448 21.8708C107.616 21.8708 109.704 20.2868 109.704 17.9108Z" fill="white"/>
</g>
<defs>
<clipPath id="clip0_301_1145">
<rect width="624" height="108" fill="white" transform="translate(0.858887)"/>
</clipPath>
<clipPath id="clip1_301_1145">
<rect width="188" height="40" fill="white" transform="translate(0.858887 68)"/>
</clipPath>
<clipPath id="clip2_301_1145">
<rect width="188" height="40" fill="white" transform="translate(218.859 68)"/>
</clipPath>
<clipPath id="clip3_301_1145">
<rect width="189" height="39" fill="white" transform="translate(435.859 68)"/>
</clipPath>
</defs>
</svg>
